<svg aria-hidden="true" style="position: absolute; width: 0; height: 0; overflow: hidden;" version="1.1" xmlns="http://www.w3.org/2000/svg" xmlns:xlink="http://www.w3.org/1999/xlink">
    <defs>
        <symbol id="icon_edit" viewBox="0 0 34 32">
            <title>edit</title>
            <path d="M29.287 19.854c0-0.595-0.482-1.077-1.077-1.077s-1.077 0.482-1.077 1.077v0h2.154zM12.134 4.855c0.595 0 1.077-0.482 1.077-1.077s-0.482-1.077-1.077-1.077v0 2.154zM27.133 19.854v8.053h2.154v-8.053h-2.154zM27.133 27.907c0 1.071-0.868 1.939-1.939 1.939v0 2.154c2.261 0 4.093-1.833 4.093-4.093v0h-2.154zM25.194 29.846h-21.113v2.154h21.113v-2.154zM4.081 29.846c-1.071 0-1.939-0.868-1.939-1.939v0h-2.154c0 2.262 1.831 4.093 4.093 4.093v-2.154zM2.142 27.907v-21.113h-2.154v21.113h2.154zM2.142 6.794c0-1.071 0.868-1.939 1.939-1.939v0-2.154c-2.261 0-4.093 1.833-4.093 4.093v0h2.154zM4.081 4.855h8.053v-2.154h-8.053v2.154z"></path>
            <path d="M31.225 6.793l0.763 0.763c0.196-0.195 0.316-0.465 0.316-0.763s-0.121-0.568-0.316-0.763l-0-0-0.763 0.763zM16.144 21.874v1.077c0.001 0 0.001 0 0.002 0 0.297 0 0.566-0.12 0.761-0.315l-0 0-0.763-0.763zM10.112 21.874h-1.077c0 0.595 0.482 1.077 1.077 1.077v0-1.077zM10.112 15.842l-0.763-0.763c-0.194 0.195-0.315 0.464-0.315 0.761 0 0.001 0 0.001 0 0.002v-0h1.077zM24.43 1.524l6.032 6.032 1.525-1.525-6.032-6.032-1.525 1.525zM30.462 6.031l-15.080 15.080 1.525 1.525 15.080-15.080-1.525-1.525zM16.144 20.797h-6.032v2.154h6.032v-2.154zM11.189 21.874v-6.032h-2.154v6.032h2.154zM10.875 16.604l15.080-15.080-1.525-1.525-15.080 15.080 1.525 1.525z"></path>
        </symbol>
        <symbol id="icon_cancel" viewBox="0 0 32 32">
            <title>cancel</title>
            <path d="M16 32c8.837 0 16-7.163 16-16v0h-2.133c0 7.658-6.208 13.867-13.867 13.867v0 2.133zM32 16c0-8.837-7.163-16-16-16v0 2.133c7.658 0 13.867 6.208 13.867 13.867v0h2.133zM16 0c-8.837 0-16 7.163-16 16v0h2.133c0-7.658 6.208-13.867 13.867-13.867v0-2.133zM0 16c0 8.837 7.163 16 16 16v0-2.133c-7.658 0-13.867-6.208-13.867-13.867v0h-2.133z"></path>
            <path d="M6.195 4.687c-0.193-0.193-0.46-0.313-0.755-0.313-0.59 0-1.068 0.478-1.068 1.068 0 0.295 0.12 0.562 0.313 0.755v0l1.51-1.51zM25.801 27.313c0.193 0.193 0.46 0.313 0.755 0.313 0.59 0 1.068-0.478 1.068-1.068 0-0.295-0.12-0.562-0.313-0.755l-1.51 1.51zM4.685 6.197l21.116 21.116 1.51-1.51-21.116-21.116-1.51 1.51z"></path>
        </symbol>
        <symbol id="icon_message" viewBox="0 0 32 32">
            <title>message</title>
            <path d="M7.712 24.297v-1.067c-0.294 0-0.56 0.119-0.753 0.311l0-0 0.753 0.755zM1.075 30.933h-1.067c0 0.001 0 0.001 0 0.002 0 0.589 0.478 1.067 1.067 1.067 0.295 0 0.562-0.12 0.755-0.313l0-0-0.755-0.755zM29.875 20.977c0 1.244-1.009 2.253-2.253 2.253v2.133c2.423 0 4.386-1.963 4.386-4.386h-2.133zM27.622 23.23h-19.91v2.133h19.91v-2.133zM6.959 23.541l-6.639 6.637 1.51 1.51 6.635-6.639-1.506-1.508zM2.142 30.933v-26.547h-2.133v26.547h2.133zM2.142 4.386c0-1.244 1.009-2.253 2.253-2.253v-2.133c-2.423 0-4.386 1.963-4.386 4.386h2.133zM4.395 2.133h23.228v-2.133h-23.228v2.133zM27.622 2.133c1.244 0 2.253 1.009 2.253 2.253h2.133c0-2.423-1.963-4.386-4.386-4.386v2.133zM29.875 4.386v16.591h2.133v-16.591h-2.133z"></path>
        </symbol>
        <symbol id="icon_filter" viewBox="0 0 34 32">
            <title>filter</title>
            <path d="M0.805 0.807v-0.807c-0 0-0 0-0.001 0-0.445 0-0.807 0.361-0.807 0.807 0 0.199 0.072 0.381 0.192 0.522l-0.001-0.001 0.616-0.521zM13.71 16.067h0.807c0-0 0-0 0-0.001 0-0.199-0.072-0.381-0.191-0.522l0.001 0.001-0.616 0.521zM13.71 26.616h-0.807c0 0.314 0.179 0.586 0.441 0.719l0.005 0.002 0.361-0.721zM20.162 29.842l-0.361 0.721c0.105 0.054 0.23 0.085 0.361 0.085 0.445 0 0.807-0.361 0.807-0.806v0h-0.807zM20.162 16.067l-0.616-0.521c-0.118 0.139-0.19 0.322-0.19 0.52 0 0 0 0 0 0.001v-0h0.807zM33.067 0h-32.262v1.613h32.262v-1.613zM0.189 1.328l12.905 15.26 1.232-1.042-12.905-15.26-1.232 1.042zM12.903 16.067v10.55h1.613v-10.55h-1.613zM13.348 27.337l6.452 3.226 0.723-1.442-6.452-3.226-0.723 1.442zM20.969 29.842v-13.776h-1.613v13.776h1.613zM20.778 16.588l12.905-15.26-1.232-1.042-12.905 15.26 1.232 1.042z"></path>
        </symbol>
        <symbol id="icon_chart" viewBox="0 0 32 32">
            <title>chart</title>
            <path d="M12.952 2.286v-0.762c-0.421 0-0.762 0.341-0.762 0.762v0h0.762zM19.048 2.286h0.762c0-0.421-0.341-0.762-0.762-0.762v0 0.762zM19.048 29.714v0.762c0.421 0 0.762-0.341 0.762-0.762v0h-0.762zM12.952 29.714h-0.762c0 0.421 0.341 0.762 0.762 0.762v0-0.762zM12.952 3.048h6.095v-1.524h-6.095v1.524zM18.286 2.286v27.429h1.524v-27.429h-1.524zM19.048 28.952h-6.095v1.524h6.095v-1.524zM13.714 29.714v-27.429h-1.524v27.429h1.524z"></path>
            <path d="M25.143 9.905v-0.762c-0.421 0-0.762 0.341-0.762 0.762v0h0.762zM31.238 9.905h0.762c0-0.421-0.341-0.762-0.762-0.762v0 0.762zM31.238 29.714v0.762c0.421 0 0.762-0.341 0.762-0.762v0h-0.762zM25.143 29.714h-0.762c0 0.421 0.341 0.762 0.762 0.762v0-0.762zM25.143 10.667h6.095v-1.524h-6.095v1.524zM30.476 9.905v19.81h1.524v-19.81h-1.524zM31.238 28.952h-6.095v1.524h6.095v-1.524zM25.905 29.714v-19.81h-1.524v19.81h1.524z"></path>
            <path d="M0.762 17.524v-0.762c-0.421 0-0.762 0.341-0.762 0.762v0h0.762zM6.857 17.524h0.762c0-0.421-0.341-0.762-0.762-0.762v0 0.762zM6.857 29.714v0.762c0.421 0 0.762-0.341 0.762-0.762v0h-0.762zM0.762 29.714h-0.762c0 0.421 0.341 0.762 0.762 0.762v0-0.762zM0.762 18.286h6.095v-1.524h-6.095v1.524zM6.095 17.524v12.19h1.524v-12.19h-1.524zM6.857 28.952h-6.095v1.524h6.095v-1.524zM1.524 29.714v-12.19h-1.524v12.19h1.524z"></path>
        </symbol>
        <symbol id="icon_bell" viewBox="0 0 32 32">
            <title>bell</title>
            <path d="M0.758 22.861c-0.421 0-0.762 0.341-0.762 0.762s0.341 0.762 0.762 0.762v0-1.524zM5.331 11.43v0zM26.668 11.43v0zM18.636 29.719l0.658 0.381c0.064-0.109 0.102-0.241 0.102-0.381 0-0.42-0.34-0.761-0.76-0.762h-0v0.762zM13.362 29.719v-0.762c-0.42 0.001-0.761 0.342-0.761 0.762 0 0.14 0.038 0.272 0.104 0.385l-0.002-0.004 0.658-0.381zM31.24 22.861h-30.481v1.524h30.481v-1.524zM0.758 24.385c2.946 0 5.334-2.388 5.334-5.334v0h-1.524c0 2.104-1.706 3.81-3.81 3.81v0 1.524zM6.093 19.050v-7.62h-1.524v7.62h1.524zM6.093 11.43c0-5.471 4.435-9.906 9.906-9.906v0-1.524c-6.313 0-11.43 5.118-11.43 11.43v0h1.524zM15.999 1.524c5.471 0 9.906 4.435 9.906 9.906v0h1.524c0-6.313-5.118-11.43-11.43-11.43v0 1.524zM25.905 11.43v7.62h1.524v-7.62h-1.524zM25.905 19.050c0 2.946 2.388 5.334 5.334 5.334v0-1.524c-2.104 0-3.81-1.706-3.81-3.81v0h-1.524zM17.976 29.338c-0.403 0.685-1.137 1.138-1.977 1.138h-0v1.524c1.4-0 2.623-0.756 3.285-1.881l0.010-0.018-1.318-0.765zM15.999 30.475c-0.84-0-1.574-0.454-1.971-1.129l-0.006-0.011-1.318 0.765c0.672 1.143 1.895 1.899 3.295 1.899h0v-1.524zM13.362 30.479h5.273v-1.524h-5.273v1.524z"></path>
        </symbol>
        <symbol id="icon_book" viewBox="0 0 32 32">
            <title>book</title>
            <path d="M3.048 27.429c0 0.421 0.341 0.762 0.762 0.762s0.762-0.341 0.762-0.762v0h-1.524zM28.19 24.381c0.421 0 0.762-0.341 0.762-0.762s-0.341-0.762-0.762-0.762v0 1.524zM4.571 27.429c0-1.683 1.364-3.048 3.048-3.048v0-1.524c-2.525 0-4.571 2.047-4.571 4.571v0h1.524zM7.619 24.381h20.571v-1.524h-20.571v1.524z"></path>
            <path d="M28.19 0.762h0.762c0-0.421-0.341-0.762-0.762-0.762v0 0.762zM28.19 31.238v0.762c0.421 0 0.762-0.341 0.762-0.762v0h-0.762zM7.619 1.524h20.571v-1.524h-20.571v1.524zM27.429 0.762v30.476h1.524v-30.476h-1.524zM28.19 30.476h-20.571v1.524h20.571v-1.524zM7.619 30.476c-1.683 0-3.048-1.364-3.048-3.048v0h-1.524c0 2.525 2.047 4.571 4.571 4.571v0-1.524zM4.571 27.429v-22.857h-1.524v22.857h1.524zM4.571 4.571c0-1.683 1.364-3.048 3.048-3.048v0-1.524c-2.525 0-4.571 2.047-4.571 4.571v0h1.524z"></path>
        </symbol>
        <symbol id="icon_briefcase" viewBox="0 0 32 32">
            <title>briefcase</title>
            <path d="M3.81 9.143h24.381v-1.524h-24.381v1.524zM30.476 11.429v15.238h1.524v-15.238h-1.524zM28.19 28.952h-24.381v1.524h24.381v-1.524zM1.524 26.667v-15.238h-1.524v15.238h1.524zM3.81 28.952c-1.262 0-2.286-1.023-2.286-2.286v0h-1.524c0 2.104 1.706 3.81 3.81 3.81v0-1.524zM30.476 26.667c0 1.262-1.023 2.286-2.286 2.286v0 1.524c2.104 0 3.81-1.706 3.81-3.81v0h-1.524zM28.19 9.143c1.262 0 2.286 1.023 2.286 2.286v0h1.524c0-2.104-1.706-3.81-3.81-3.81v0 1.524zM3.81 7.619c-2.104 0-3.81 1.706-3.81 3.81v0h1.524c0-1.262 1.023-2.286 2.286-2.286v0-1.524z"></path>
            <path d="M21.333 29.714c0 0.421 0.341 0.762 0.762 0.762s0.762-0.341 0.762-0.762v0h-1.524zM9.143 29.714c0 0.421 0.341 0.762 0.762 0.762s0.762-0.341 0.762-0.762v0h-1.524zM22.857 29.714v-24.381h-1.524v24.381h1.524zM22.857 5.333c0-2.104-1.706-3.81-3.81-3.81v0 1.524c1.262 0 2.286 1.023 2.286 2.286v0h1.524zM19.048 1.524h-6.095v1.524h6.095v-1.524zM12.952 1.524c-2.104 0-3.81 1.706-3.81 3.81v0h1.524c0-1.262 1.023-2.286 2.286-2.286v0-1.524zM9.143 5.333v24.381h1.524v-24.381h-1.524z"></path>
        </symbol>
        <symbol id="icon_clipboard" viewBox="0 0 32 32">
            <title>clipboard</title>
            <path d="M22.095 3.048c-0.421 0-0.762 0.341-0.762 0.762s0.341 0.762 0.762 0.762v0-1.524zM9.905 4.571c0.421 0 0.762-0.341 0.762-0.762s-0.341-0.762-0.762-0.762v0 1.524zM22.095 4.571h3.048v-1.524h-3.048v1.524zM25.143 4.571c1.262 0 2.286 1.023 2.286 2.286v0h1.524c0-2.104-1.706-3.81-3.81-3.81v0 1.524zM27.429 6.857v21.333h1.524v-21.333h-1.524zM27.429 28.19c0 1.262-1.023 2.286-2.286 2.286v0 1.524c2.104 0 3.81-1.706 3.81-3.81v0h-1.524zM25.143 30.476h-18.286v1.524h18.286v-1.524zM6.857 30.476c-1.262 0-2.286-1.023-2.286-2.286v0h-1.524c0 2.104 1.706 3.81 3.81 3.81v0-1.524zM4.571 28.19v-21.333h-1.524v21.333h1.524zM4.571 6.857c0-1.262 1.023-2.286 2.286-2.286v0-1.524c-2.104 0-3.81 1.706-3.81 3.81v0h1.524zM6.857 4.571h3.048v-1.524h-3.048v1.524z"></path>
            <path d="M11.429 1.524h9.143v-1.524h-9.143v1.524zM21.333 2.286v3.048h1.524v-3.048h-1.524zM20.571 6.095h-9.143v1.524h9.143v-1.524zM10.667 5.333v-3.048h-1.524v3.048h1.524zM11.429 6.095c-0.421 0-0.762-0.341-0.762-0.762v0h-1.524c0 1.262 1.023 2.286 2.286 2.286v0-1.524zM21.333 5.333c0 0.421-0.341 0.762-0.762 0.762v0 1.524c1.262 0 2.286-1.023 2.286-2.286v0h-1.524zM20.571 1.524c0.421 0 0.762 0.341 0.762 0.762v0h1.524c0-1.262-1.023-2.286-2.286-2.286v0 1.524zM11.429 0c-1.262 0-2.286 1.023-2.286 2.286v0h1.524c0-0.421 0.341-0.762 0.762-0.762v0-1.524z"></path>
        </symbol>
        <symbol id="icon_mail" viewBox="0 0 32 32">
            <title>mail</title>
            <path d="M3.806 4.571h24.381v-1.524h-24.381v1.524zM28.187 4.571c1.256 0 2.286 1.030 2.286 2.286h1.524c0-2.097-1.713-3.81-3.81-3.81v1.524zM30.473 6.857v18.286h1.524v-18.286h-1.524zM30.473 25.143c0 1.256-1.030 2.286-2.286 2.286v1.524c2.097 0 3.81-1.713 3.81-3.81h-1.524zM28.187 27.429h-24.381v1.524h24.381v-1.524zM3.806 27.429c-1.256 0-2.286-1.030-2.286-2.286h-1.524c0 2.097 1.713 3.81 3.81 3.81v-1.524zM1.521 25.143v-18.286h-1.524v18.286h1.524zM1.521 6.857c0-1.256 1.030-2.286 2.286-2.286v-1.524c-2.102 0.005-3.804 1.708-3.81 3.809v0h1.524z"></path>
            <path d="M31.672 7.482c0.198-0.14 0.325-0.367 0.325-0.625 0-0.421-0.341-0.763-0.763-0.763-0.164 0-0.315 0.052-0.44 0.139l0.002-0.002 0.875 1.25zM15.997 17.524l-0.437 0.625c0.122 0.086 0.274 0.138 0.437 0.138s0.315-0.052 0.44-0.14l-0.002 0.002-0.437-0.625zM1.196 6.232c-0.122-0.086-0.274-0.138-0.437-0.138-0.421 0-0.763 0.341-0.763 0.763 0 0.257 0.128 0.485 0.323 0.623l0.002 0.002 0.875-1.25zM30.798 6.232l-15.238 10.667 0.875 1.25 15.238-10.667-0.875-1.25zM16.434 16.899l-15.238-10.667-0.875 1.25 15.238 10.667 0.875-1.25z"></path>
        </symbol>
        <symbol id="icon_plus-circle" viewBox="0 0 32 32">
            <title>plus-circle</title>
            <path fill="#3e4a57" style="fill: var(--color1, #3e4a57)" d="M16 32c8.837 0 16-7.163 16-16v0h-1.882c0 7.797-6.321 14.118-14.118 14.118v0 1.882zM32 16c0-8.837-7.163-16-16-16v0 1.882c7.797 0 14.118 6.321 14.118 14.118v0h1.882zM16 0c-8.837 0-16 7.163-16 16v0h1.882c0-7.797 6.321-14.118 14.118-14.118v0-1.882zM0 16c0 8.837 7.163 16 16 16v0-1.882c-7.797 0-14.118-6.321-14.118-14.118v0h-1.882z"></path>
            <path fill="#414d5a" style="fill: var(--color2, #414d5a)" d="M16.941 9.976c0-0.52-0.421-0.941-0.941-0.941s-0.941 0.421-0.941 0.941v0h1.882zM15.059 22.024c0 0.52 0.421 0.941 0.941 0.941s0.941-0.421 0.941-0.941v0h-1.882zM15.059 9.976v12.047h1.882v-12.047h-1.882z"></path>
            <path fill="#414d5a" style="fill: var(--color2, #414d5a)" d="M9.976 15.059c-0.52 0-0.941 0.421-0.941 0.941s0.421 0.941 0.941 0.941v0-1.882zM22.024 16.941c0.52 0 0.941-0.421 0.941-0.941s-0.421-0.941-0.941-0.941v0 1.882zM9.976 16.941h12.047v-1.882h-12.047v1.882z"></path>
        </symbol>
        <symbol id="icon_plus" viewBox="0 0 32 32">
            <title>plus</title>
            <path fill-rule="evenodd" d="M16.941 9.976c0-0.52-0.421-0.941-0.941-0.941s-0.941 0.421-0.941 0.941v0h1.882zM15.059 22.024c0 0.52 0.421 0.941 0.941 0.941s0.941-0.421 0.941-0.941v0h-1.882zM15.059 9.976v12.047h1.882v-12.047h-1.882z"></path>
            <path fill-rule="evenodd" d="M9.976 15.059c-0.52 0-0.941 0.421-0.941 0.941s0.421 0.941 0.941 0.941v0-1.882zM22.024 16.941c0.52 0 0.941-0.421 0.941-0.941s-0.421-0.941-0.941-0.941v0 1.882zM9.976 16.941h12.047v-1.882h-12.047v1.882z"></path>
        </symbol>
        <symbol id="icon_settings" viewBox="0 0 32 32">
            <title>settings</title>
            <path d="M16 20.87c2.689 0 4.87-2.18 4.87-4.87v0h-1.391c0 1.921-1.557 3.478-3.478 3.478v0 1.391zM20.87 16c0-2.689-2.18-4.87-4.87-4.87v0 1.391c1.921 0 3.478 1.557 3.478 3.478v0h1.391zM16 11.13c-2.689 0-4.87 2.18-4.87 4.87v0h1.391c0-1.921 1.557-3.478 3.478-3.478v0-1.391zM11.13 16c0 2.689 2.18 4.87 4.87 4.87v0-1.391c-1.921 0-3.478-1.557-3.478-3.478v0h-1.391z"></path>
            <path d="M26.296 20.174l0.637 0.281 0.003-0.007-0.64-0.274zM26.755 22.706l-0.498 0.487 0.006 0.006 0.493-0.493zM26.838 22.79v0zM26.838 26.727v0zM22.901 26.727v0zM22.817 26.643l0.493-0.493-0.006-0.004-0.487 0.497zM20.285 26.184l0.274 0.64 0.007-0.004-0.281-0.636zM18.894 28.285l-0.696-0.003v0.003h0.696zM13.329 28.397h0.696v-0.017l-0.696 0.017zM11.826 26.296l-0.281 0.636c0.009 0.004 0.023 0.010 0.037 0.015l0.005 0.002 0.239-0.653zM9.294 26.755l-0.487-0.498-0.006 0.006 0.493 0.493zM9.21 26.838v0zM5.273 26.838v0zM5.273 22.901v0zM5.357 22.817l0.493 0.493 0.004-0.006-0.497-0.487zM5.816 20.285l-0.64 0.274 0.004 0.007 0.636-0.281zM3.715 18.894l0.003-0.696h-0.003v0.696zM0.696 16.111v0zM3.603 13.329v0.696h0.017l-0.017-0.696zM5.704 11.826l-0.636-0.281c-0.004 0.009-0.010 0.023-0.015 0.037l-0.002 0.005 0.653 0.239zM5.245 9.294l0.497-0.487-0.004-0.006-0.493 0.493zM5.162 9.21v0zM5.162 5.273v0zM9.099 5.273v0zM9.183 5.357l-0.493 0.493 0.006 0.004 0.487-0.497zM11.715 5.816v-0.696c-0.102 0-0.198 0.022-0.285 0.062l0.004-0.002 0.281 0.636zM11.826 5.816v0.696c0 0 0.001 0 0.001 0 0.098 0 0.192-0.020 0.277-0.057l-0.005 0.002-0.274-0.64zM13.217 3.715l0.696 0.003v-0.003h-0.696zM18.783 3.603h-0.696v0.003l0.696-0.003zM20.174 5.704l0.281-0.636-0.007-0.004-0.274 0.64zM22.706 5.245l0.487 0.497 0.006-0.004-0.493-0.493zM22.79 5.162v0zM26.727 5.162v0zM26.727 9.099v0zM26.643 9.183l-0.493-0.493-0.004 0.006 0.497 0.487zM26.184 11.715h0.696c-0-0.102-0.022-0.198-0.062-0.285l0.002 0.004-0.636 0.281zM26.184 11.826h-0.696c0 0.095 0.019 0.188 0.056 0.274l0.64-0.274zM28.285 13.217l-0.003 0.696h0.003v-0.696zM28.397 18.783v-0.696h-0.003l0.003 0.696zM25.66 19.893c-0.161 0.356-0.255 0.771-0.255 1.208 0 0.815 0.326 1.553 0.854 2.092l-0-0.001 0.993-0.974c-0.282-0.288-0.456-0.683-0.456-1.119 0-0.234 0.050-0.456 0.14-0.656l-0.004 0.010-1.272-0.562zM26.262 23.199l0.083 0.083 0.985-0.985-0.083-0.083-0.985 0.985zM26.346 23.282c0.378 0.378 0.612 0.9 0.612 1.476v0h1.391c0-0 0-0 0-0.001 0-0.961-0.39-1.831-1.020-2.461l-0-0-0.982 0.985zM26.958 24.758c-0 0.577-0.234 1.099-0.612 1.476l-0 0 0.984 0.985c0.631-0.63 1.021-1.5 1.021-2.461v-0h-1.391zM26.346 26.236c-0.378 0.378-0.9 0.612-1.476 0.612h-0v1.391c0.961-0 1.832-0.39 2.461-1.021l0-0-0.985-0.982zM24.87 26.848c-0.577-0-1.099-0.234-1.476-0.612l-0-0-0.985 0.982c0.63 0.631 1.5 1.021 2.461 1.021h0v-1.391zM23.393 26.236l-0.083-0.083-0.985 0.984 0.083 0.083 0.985-0.985zM23.304 26.147c-0.539-0.528-1.277-0.853-2.092-0.853-0.437 0-0.853 0.094-1.227 0.262l0.019-0.008 0.562 1.272c0.19-0.086 0.412-0.136 0.646-0.136 0.436 0 0.83 0.174 1.119 0.456l-0-0 0.974-0.993zM20.011 25.544c-1.072 0.468-1.808 1.516-1.813 2.737v0.001l1.391 0.006c0.003-0.653 0.397-1.214 0.959-1.46l0.010-0.004-0.548-1.28zM18.198 28.285v0.237h1.391v-0.237h-1.391zM18.198 28.522c0 1.153-0.934 2.087-2.087 2.087v0 1.391c1.921 0 3.478-1.557 3.478-3.478v0h-1.391zM16.111 30.609c-1.153 0-2.087-0.934-2.087-2.087v0h-1.391c0 1.921 1.557 3.478 3.478 3.478v0-1.391zM14.024 28.522v-0.125h-1.391v0.125h1.391zM14.024 28.38c-0.030-1.253-0.827-2.312-1.937-2.73l-0.021-0.007-0.481 1.305c0.618 0.227 1.032 0.807 1.048 1.465l1.391-0.033zM12.107 25.66c-0.356-0.161-0.771-0.255-1.208-0.255-0.815 0-1.553 0.326-2.092 0.854l0.001-0 0.974 0.993c0.288-0.282 0.683-0.456 1.119-0.456 0.234 0 0.456 0.050 0.656 0.14l-0.010-0.004 0.562-1.272zM8.801 26.262l-0.083 0.083 0.985 0.985 0.083-0.083-0.985-0.985zM8.718 26.346c-0.378 0.378-0.9 0.612-1.476 0.612h-0v1.391c0 0 0 0 0.001 0 0.961 0 1.831-0.39 2.461-1.020l0-0-0.985-0.982zM7.242 26.958c-0.577-0-1.099-0.234-1.476-0.612l-0-0-0.985 0.984c0.63 0.631 1.5 1.021 2.461 1.021h0v-1.391zM5.764 26.346c-0.378-0.378-0.612-0.9-0.612-1.476v-0h-1.391c0 0.922 0.367 1.809 1.021 2.461l0.982-0.985zM5.152 24.87c0-0.554 0.221-1.085 0.612-1.476l-0.982-0.985c-0.631 0.63-1.021 1.5-1.021 2.461v0h1.391zM5.764 23.393l0.083-0.083-0.984-0.985-0.083 0.083 0.985 0.985zM5.853 23.304c0.528-0.539 0.853-1.277 0.853-2.092 0-0.437-0.094-0.853-0.262-1.227l0.008 0.019-1.272 0.562c0.264 0.598 0.136 1.297-0.32 1.764l0.993 0.974zM6.456 20.011c-0.468-1.072-1.516-1.808-2.737-1.813h-0.001l-0.006 1.391c0.653 0.003 1.214 0.397 1.46 0.959l0.004 0.010 1.28-0.548zM3.715 18.198h-0.237v1.391h0.237v-1.391zM3.478 18.198c-1.153 0-2.087-0.934-2.087-2.087v0h-1.391c0 1.921 1.557 3.478 3.478 3.478v0-1.391zM1.391 16.111c0-1.153 0.934-2.087 2.087-2.087v0-1.391c-1.921 0-3.478 1.557-3.478 3.478v0h1.391zM3.478 14.024h0.125v-1.391h-0.125v1.391zM3.62 14.024c1.253-0.030 2.312-0.827 2.73-1.937l0.007-0.021-1.305-0.481c-0.227 0.606-0.794 1.032-1.463 1.048l-0.002 0 0.033 1.391zM6.34 12.107c0.161-0.356 0.255-0.771 0.255-1.208 0-0.815-0.326-1.553-0.854-2.092l0 0.001-0.993 0.974c0.456 0.467 0.584 1.166 0.32 1.764l1.272 0.562zM5.738 8.801l-0.083-0.083-0.985 0.985 0.083 0.083 0.985-0.985zM5.654 8.718c-0.378-0.378-0.612-0.9-0.612-1.476v-0h-1.391c0 0.924 0.366 1.809 1.020 2.461l0.982-0.985zM5.042 7.242c0-0.554 0.22-1.085 0.612-1.476l-0.984-0.985c-0.631 0.63-1.021 1.5-1.021 2.461v0h1.391zM5.654 5.764c0.378-0.378 0.9-0.612 1.476-0.612h0v-1.391c-0.961 0-1.832 0.39-2.461 1.021l-0 0 0.985 0.982zM7.13 5.152c0.577 0 1.099 0.234 1.476 0.612l0 0 0.985-0.982c-0.63-0.631-1.5-1.021-2.461-1.021h-0v1.391zM8.607 5.764l0.083 0.083 0.985-0.984-0.083-0.083-0.985 0.985zM8.696 5.853c0.539 0.528 1.277 0.853 2.092 0.853 0.437 0 0.853-0.094 1.227-0.262l-0.019 0.008-0.562-1.272c-0.19 0.086-0.412 0.136-0.646 0.136-0.436 0-0.83-0.174-1.119-0.456l0 0-0.974 0.993zM11.715 6.511h0.111v-1.391h-0.111v1.391zM12.1 6.456c1.072-0.468 1.808-1.516 1.813-2.737v-0.001l-1.391-0.006c-0.003 0.653-0.397 1.214-0.959 1.46l-0.010 0.004 0.548 1.28zM13.913 3.715v-0.237h-1.391v0.237h1.391zM13.913 3.478c0-1.153 0.934-2.087 2.087-2.087v0-1.391c-1.921 0-3.478 1.557-3.478 3.478v0h1.391zM16 1.391c1.153 0 2.087 0.934 2.087 2.087v0h1.391c0-1.921-1.557-3.478-3.478-3.478v0 1.391zM18.087 3.478v0.125h1.391v-0.125h-1.391zM18.087 3.606c0.005 1.222 0.741 2.27 1.794 2.731l0.019 0.008 0.548-1.28c-0.573-0.25-0.967-0.811-0.97-1.463v-0l-1.391 0.006zM19.893 6.34c0.356 0.161 0.771 0.255 1.208 0.255 0.815 0 1.553-0.326 2.092-0.854l-0.001 0-0.974-0.993c-0.288 0.282-0.683 0.456-1.119 0.456-0.234 0-0.456-0.050-0.656-0.14l0.010 0.004-0.562 1.272zM23.199 5.738l0.083-0.083-0.985-0.985-0.083 0.083 0.985 0.985zM23.282 5.654c0.378-0.378 0.9-0.612 1.476-0.612h0v-1.391c-0 0-0 0-0.001 0-0.961 0-1.831 0.39-2.461 1.020l-0 0 0.985 0.982zM24.758 5.042c0.577 0 1.099 0.234 1.476 0.612l0 0 0.985-0.984c-0.63-0.631-1.5-1.021-2.461-1.021h-0v1.391zM26.236 5.654c0.378 0.378 0.612 0.9 0.612 1.476v0h1.391c-0-0.961-0.39-1.832-1.021-2.461l-0-0-0.982 0.985zM26.848 7.13c-0 0.577-0.234 1.099-0.612 1.476l-0 0 0.982 0.985c0.631-0.63 1.021-1.5 1.021-2.461v-0h-1.391zM26.236 8.607l-0.083 0.083 0.984 0.985 0.083-0.083-0.985-0.985zM26.147 8.696c-0.528 0.539-0.853 1.277-0.853 2.092 0 0.437 0.094 0.853 0.262 1.227l-0.008-0.019 1.272-0.562c-0.086-0.19-0.136-0.412-0.136-0.646 0-0.436 0.174-0.83 0.456-1.119l-0 0-0.993-0.974zM25.489 11.715v0.111h1.391v-0.111h-1.391zM25.544 12.1c0.468 1.072 1.516 1.808 2.737 1.813h0.001l0.006-1.391c-0.653-0.003-1.214-0.397-1.46-0.959l-0.004-0.010-1.28 0.548zM28.285 13.913h0.237v-1.391h-0.237v1.391zM28.522 13.913c1.153 0 2.087 0.934 2.087 2.087v0h1.391c0-1.921-1.557-3.478-3.478-3.478v0 1.391zM30.609 16c0 1.153-0.934 2.087-2.087 2.087v0 1.391c1.921 0 3.478-1.557 3.478-3.478v0h-1.391zM28.522 18.087h-0.125v1.391h0.125v-1.391zM28.394 18.087c-1.222 0.005-2.27 0.741-2.731 1.794l-0.008 0.019 1.28 0.548c0.25-0.573 0.811-0.967 1.463-0.97h0l-0.006-1.391z"></path>
        </symbol>
        <symbol id="icon_cart" viewBox="0 0 32 32">
            <title>cart</title>
            <path d="M10.435 32c1.921 0 3.478-1.557 3.478-3.478v0h-1.391c0 1.153-0.934 2.087-2.087 2.087v0 1.391zM13.913 28.522c0-1.921-1.557-3.478-3.478-3.478v0 1.391c1.153 0 2.087 0.934 2.087 2.087v0h1.391zM10.435 25.043c-1.921 0-3.478 1.557-3.478 3.478v0h1.391c0-1.153 0.934-2.087 2.087-2.087v0-1.391zM6.957 28.522c0 1.921 1.557 3.478 3.478 3.478v0-1.391c-1.153 0-2.087-0.934-2.087-2.087v0h-1.391z"></path>
            <path d="M27.13 32c1.921 0 3.478-1.557 3.478-3.478v0h-1.391c0 1.153-0.934 2.087-2.087 2.087v0 1.391zM30.609 28.522c0-1.921-1.557-3.478-3.478-3.478v0 1.391c1.153 0 2.087 0.934 2.087 2.087v0h1.391zM27.13 25.043c-1.921 0-3.478 1.557-3.478 3.478v0h1.391c0-1.153 0.934-2.087 2.087-2.087v0-1.391zM23.652 28.522c0 1.921 1.557 3.478 3.478 3.478v0-1.391c-1.153 0-2.087-0.934-2.087-2.087v0h-1.391z"></path>
            <path d="M7.193 6.957c-0.384 0-0.696 0.311-0.696 0.696s0.311 0.696 0.696 0.696v0-1.391zM31.304 7.652l0.682 0.136c0.009-0.041 0.014-0.088 0.014-0.136 0-0.384-0.311-0.695-0.695-0.696h-0v0.696zM28.967 19.325v0zM26.184 21.565l0.014-0.696h-0.014v0.696zM11.478 21.565v-0.696h-0.006l0.006 0.696zM8.696 19.144v0zM6.581 3.117v0zM3.826 0.696v0zM0.696 0c-0.384 0-0.696 0.311-0.696 0.696s0.311 0.696 0.696 0.696v0-1.391zM7.193 8.348h24.111v-1.391h-24.111v1.391zM30.623 7.516l-2.337 11.673 1.363 0.273 2.337-11.673-1.363-0.273zM28.285 19.189c-0.196 0.965-1.038 1.681-2.047 1.681-0.014 0-0.028-0-0.042-0l0.002 0-0.028 1.391c0.020 0 0.043 0.001 0.067 0.001 1.681 0 3.084-1.193 3.408-2.779l0.004-0.022-1.363-0.27zM26.184 20.87h-14.706v1.391h14.706v-1.391zM11.473 20.87c-0.005 0-0.011 0-0.018 0-1.057 0-1.93-0.786-2.068-1.805l-0.001-0.011-1.38 0.181c0.231 1.717 1.687 3.026 3.449 3.026 0.010 0 0.021-0 0.031-0h-0.002l-0.011-1.391zM9.386 19.054l-2.115-16.028-1.38 0.181 2.115 16.028 1.38-0.181zM7.271 3.026c-0.231-1.715-1.685-3.024-3.445-3.026h-0l-0.003 1.391c1.056 0.002 1.927 0.787 2.065 1.805l0.001 0.011 1.38-0.181zM3.826 0h-3.13v1.391h3.13v-1.391z"></path>
        </symbol>
        <symbol id="icon_trash" viewBox="0 0 32 32">
            <title>trash</title>
            <path d="M2 6c-0.552 0-1 0.448-1 1s0.448 1 1 1v0-2zM30 8c0.552 0 1-0.448 1-1s-0.448-1-1-1v0 2zM2 8h3.112v-2h-3.112v2zM5.112 8h24.888v-2h-24.888v2z"></path>
            <path d="M26.898 7h1c0-0.552-0.448-1-1-1v0 1zM5.12 7v-1c-0.552 0-1 0.448-1 1v0h1zM9.786 7h-1c0 0.552 0.448 1 1 1v0-1zM22.232 7v1c0.552 0 1-0.448 1-1v0h-1zM25.898 7v21h2v-21h-2zM25.898 28c0 1.070-0.91 2-2.112 2v2c2.236 0 4.112-1.756 4.112-4h-2zM23.786 30h-15.554v2h15.554v-2zM8.232 30c-1.2 0-2.112-0.93-2.112-2h-2c0 2.244 1.876 4 4.112 4v-2zM6.12 28v-21h-2v21h2zM26.898 6h-21.778v2h21.778v-2zM10.788 7v-3h-2v3h2zM10.788 4c0-1.070 0.91-2 2.11-2v-2c-2.236 0-4.11 1.756-4.11 4h2zM12.898 2h6.222v-2h-6.22v2zM19.12 2c1.2 0 2.112 0.93 2.112 2h2c0-2.244-1.876-4-4.112-4v2zM21.232 4v3h2v-3h-2zM9.788 8h12.444v-2h-12.444v2z"></path>
            <path d="M13.88 14.5c0-0.552-0.448-1-1-1s-1 0.448-1 1v0h2zM11.88 23.5c0 0.552 0.448 1 1 1s1-0.448 1-1v0h-2zM11.88 14.5v9h2v-9h-2z"></path>
            <path d="M20.12 14.5c0-0.552-0.448-1-1-1s-1 0.448-1 1v0h2zM18.12 23.5c0 0.552 0.448 1 1 1s1-0.448 1-1v0h-2zM18.12 14.5v9h2v-9h-2z"></path>
        </symbol>
        <symbol id="icon_users" viewBox="0 0 32 32">
            <title>users</title>
            <path d="M22.268 28.522c0 0.384 0.311 0.696 0.696 0.696s0.696-0.311 0.696-0.696v0h-1.391zM0.007 28.522c0 0.384 0.311 0.696 0.696 0.696s0.696-0.311 0.696-0.696v0h-1.391zM23.659 28.522v-2.783h-1.391v2.783h1.391zM23.659 25.739c0-3.458-2.803-6.261-6.261-6.261v0 1.391c2.689 0 4.87 2.18 4.87 4.87v0h1.391zM17.398 19.478h-11.13v1.391h11.13v-1.391zM6.268 19.478c-3.458 0-6.261 2.803-6.261 6.261v0h1.391c0-2.689 2.18-4.87 4.87-4.87v0-1.391zM0.007 25.739v2.783h1.391v-2.783h-1.391z"></path>
            <path d="M11.833 15.304c3.458 0 6.261-2.803 6.261-6.261v0h-1.391c0 2.689-2.18 4.87-4.87 4.87v0 1.391zM18.094 9.043c0-3.458-2.803-6.261-6.261-6.261v0 1.391c2.689 0 4.87 2.18 4.87 4.87v0h1.391zM11.833 2.783c-3.458 0-6.261 2.803-6.261 6.261v0h1.391c0-2.689 2.18-4.87 4.87-4.87v0-1.391zM5.572 9.043c0 3.458 2.803 6.261 6.261 6.261v0-1.391c-2.689 0-4.87-2.18-4.87-4.87v0h-1.391z"></path>
            <path d="M30.616 28.522c0 0.384 0.311 0.696 0.696 0.696s0.696-0.311 0.696-0.696v0h-1.391zM31.311 25.739v0zM27.311 19.681c-0.048-0.012-0.103-0.018-0.159-0.018-0.384 0-0.696 0.311-0.696 0.696 0 0.317 0.212 0.585 0.502 0.668l0.005 0.001 0.348-1.347zM32.007 28.522v-2.783h-1.391v2.783h1.391zM32.007 25.739c-0.002-2.9-1.975-5.338-4.652-6.048l-0.044-0.010-0.348 1.347c2.116 0.56 3.65 2.456 3.652 4.711v0h1.391z"></path>
            <path d="M21.745 2.986c-0.044-0.010-0.095-0.016-0.147-0.016-0.384 0-0.696 0.311-0.696 0.696 0 0.313 0.207 0.579 0.492 0.665l0.005 0.001 0.345-1.347zM21.4 13.768c-0.29 0.088-0.497 0.353-0.497 0.667 0 0.384 0.311 0.696 0.696 0.696 0.052 0 0.103-0.006 0.151-0.017l-0.005 0.001-0.345-1.347zM21.4 4.333c2.122 0.557 3.662 2.457 3.662 4.717 0 0 0 0 0 0.001v-0h1.391c0-0 0-0.001 0-0.001 0-2.906-1.98-5.35-4.665-6.056l-0.044-0.010-0.345 1.35zM25.062 9.050c-0 2.26-1.54 4.16-3.628 4.709l-0.034 0.008 0.345 1.35c2.728-0.716 4.708-3.159 4.708-6.065 0-0 0-0.001 0-0.001v0h-1.391z"></path>
        </symbol>
        <symbol id="icon_chevron-thin-down" viewBox="0 0 20 20">
            <title>chevron-thin-down</title>
            <path d="M17.418 6.109c0.272-0.268 0.709-0.268 0.979 0s0.271 0.701 0 0.969l-7.908 7.83c-0.27 0.268-0.707 0.268-0.979 0l-7.908-7.83c-0.27-0.268-0.27-0.701 0-0.969s0.709-0.268 0.979 0l7.419 7.141 7.418-7.141z"></path>
        </symbol>
        <symbol id="icon_dots" viewBox="0 0 21 5">
            <use fill-rule="evenodd" xlink:href="#a" />
            <use fill-rule="evenodd" transform="translate(8)" xlink:href="#a" />
            <use fill-rule="evenodd" transform="translate(16)" xlink:href="#a" />
            <defs>
                <path id="a" d="M5 2.5a2.5 2.5 0 1 1-5 0 2.5 2.5 0 0 1 5 0z" />
            </defs>
        </symbol>
        <symbol id="icon_arrows" viewBox="0 0 20 20">
            <path fill="#3e4a57" style="fill: var(--color1, #3e4a57)" d="M10 1l-5 7h10l-5-7zM10 19l5-7h-10l5 7z"></path>
        </symbol>
        <symbol width="32" height="32" viewBox="0 0 32 32" id="icon_checkoff">
            <path d="M28 0h-24c-2.2 0-4 1.8-4 4v24c0 2.2 1.8 4 4 4h24c2.2 0 4-1.8 4-4v-24c0-2.2-1.8-4-4-4zM28 28h-24v-24h24v24z"></path>
        </symbol>
        <symbol width="32" height="32" viewBox="0 0 32 32" id="icon_checkon">
            <path d="M28 0h-24c-2.2 0-4 1.8-4 4v24c0 2.2 1.8 4 4 4h24c2.2 0 4-1.8 4-4v-24c0-2.2-1.8-4-4-4zM14 24.828l-7.414-7.414 2.828-2.828 4.586 4.586 9.586-9.586 2.828 2.828-12.414 12.414z"></path>
        </symbol>
        <symbol width="18" height="18" viewBox="0 0 18 18" id="icon_map">
            <g id="Canvas" transform="translate(-11498 -2093)">
                <g id="Vector">
                    <use xlink:href="#path0_fill" transform="translate(11498 2093)" />
                </g>
            </g>
            <defs>
                <path id="path0_fill" d="M 17.5 0L 17.34 0.03L 12 2.1L 6 0L 0.36 1.9C 0.15 1.97 0 2.15 0 2.38L 0 17.5C 0 17.78 0.22 18 0.5 18L 0.66 17.97L 6 15.9L 12 18L 17.64 16.1C 17.85 16.03 18 15.85 18 15.62L 18 0.5C 18 0.22 17.78 0 17.5 0ZM 12 16L 6 13.89L 6 2L 12 4.11L 12 16Z" />
            </defs>
        </symbol>
        <symbol width="20" height="20" viewBox="0 0 20 20" id="icon_clock">
            <g id="Canvas" transform="translate(-11497 -2134)">
                <g id="ic_access_time_black_24px">
                    <g id="Vector">
                        <use xlink:href="#path1_fill" transform="translate(11497 2134)" fill="#27AE60" />
                    </g>
                    <g id="Vector">
                        <use xlink:href="#path2_fill" transform="translate(11506 2139)" fill="#27AE60" />
                    </g>
                </g>
            </g>
            <defs>
                <path id="path1_fill" d="M 9.99 0C 4.47 0 0 4.48 0 10C 0 15.52 4.47 20 9.99 20C 15.52 20 20 15.52 20 10C 20 4.48 15.52 0 9.99 0ZM 10 18C 5.58 18 2 14.42 2 10C 2 5.58 5.58 2 10 2C 14.42 2 18 5.58 18 10C 18 14.42 14.42 18 10 18Z" />
                <path id="path2_fill" d="M 1.5 0L 0 0L 0 6L 5.25 9.15L 6 7.92L 1.5 5.25L 1.5 0Z" />
            </defs>
        </symbol>
        <symbol width="20" height="20" viewBox="0 0 20 20" id="icon_block">
            <g id="Canvas" transform="translate(-12204 -2254)">
                <g id="Vector">
                    <use xlink:href="#path3_fill" transform="translate(12204 2254)" />
                </g>
            </g>
            <defs>
                <path id="path3_fill" d="M 10 0C 4.48 0 0 4.48 0 10C 0 15.52 4.48 20 10 20C 15.52 20 20 15.52 20 10C 20 4.48 15.52 0 10 0ZM 2 10C 2 5.58 5.58 2 10 2C 11.85 2 13.55 2.63 14.9 3.69L 3.69 14.9C 2.63 13.55 2 11.85 2 10ZM 10 18C 8.15 18 6.45 17.37 5.1 16.31L 16.31 5.1C 17.37 6.45 18 8.15 18 10C 18 14.42 14.42 18 10 18Z" />
            </defs>
        </symbol>
        <symbol width="14" height="18" viewBox="0 0 14 18" id="icon_trash2">
            <g id="Canvas" transform="translate(-12159 -2255)">
                <g id="Vector">
                    <use xlink:href="#path4_fill" transform="translate(12159 2255)" fill="#FFFFFF" />
                </g>
            </g>
            <defs>
                <path id="path4_fill" d="M 1 16C 1 17.1 1.9 18 3 18L 11 18C 12.1 18 13 17.1 13 16L 13 4L 1 4L 1 16ZM 14 1L 10.5 1L 9.5 0L 4.5 0L 3.5 1L 0 1L 0 3L 14 3L 14 1Z" />
            </defs>
        </symbol>
        <symbol width="16" height="16" viewBox="0 0 16 16" id="icon_success">
            <g id="Canvas" transform="translate(-10060 -2297)">
                <g id="Vector">
                    <use xlink:href="#path5_fill" transform="translate(10060.5 2297.5)" fill="#27AE60" />
                </g>
            </g>
            <defs>
                <path id="path5_fill" d="M 7.5 0C 3.36 0 0 3.36 0 7.5C 0 11.64 3.36 15 7.5 15C 11.64 15 15 11.64 15 7.5C 15 3.36 11.64 0 7.5 0ZM 6 11.25L 2.25 7.5L 3.3075 6.4425L 6 9.1275L 11.6925 3.435L 12.75 4.5L 6 11.25Z" />
            </defs>
        </symbol>
        <symbol width="16" height="16" viewBox="0 0 16 16" id="icon_successyellow">
            <g id="Canvas" transform="translate(-10356 -2297)">
                <g id="ic_check_circle_black_24px">
                    <g id="Vector">
                        <use xlink:href="#path6_fill" transform="translate(10356.5 2297.5)" fill="#F2C94C" />
                    </g>
                </g>
            </g>
            <defs>
                <path id="path6_fill" d="M 7.5 0C 3.36 0 0 3.36 0 7.5C 0 11.64 3.36 15 7.5 15C 11.64 15 15 11.64 15 7.5C 15 3.36 11.64 0 7.5 0ZM 6 11.25L 2.25 7.5L 3.3075 6.4425L 6 9.1275L 11.6925 3.435L 12.75 4.5L 6 11.25Z" />
            </defs>
        </symbol>
        <symbol width="18" height="12" viewBox="0 0 18 12" id="icon_show">
            <g id="Canvas" transform="translate(-10577 -2656)">
                <g id="ic_remove_red_eye_black_24px">
                    <g id="Vector">
                        <use xlink:href="#path7_fill" transform="translate(10577.8 2656.38)" />
                    </g>
                </g>
            </g>
            <defs>
                <path id="path7_fill" d="M 8.25 0C 4.5 0 1.2975 2.3325 0 5.625C 1.2975 8.9175 4.5 11.25 8.25 11.25C 12 11.25 15.2025 8.9175 16.5 5.625C 15.2025 2.3325 12 0 8.25 0ZM 8.25 9.375C 6.18 9.375 4.5 7.695 4.5 5.625C 4.5 3.555 6.18 1.875 8.25 1.875C 10.32 1.875 12 3.555 12 5.625C 12 7.695 10.32 9.375 8.25 9.375ZM 8.25 3.375C 7.005 3.375 6 4.38 6 5.625C 6 6.87 7.005 7.875 8.25 7.875C 9.495 7.875 10.5 6.87 10.5 5.625C 10.5 4.38 9.495 3.375 8.25 3.375Z" />
            </defs>
        </symbol>
        <symbol width="20" height="20" viewBox="0 0 20 20" id="icon_successred">
            <g transform="translate(-10099 -3506)">
                <use xlink:href="#path9_fill" transform="translate(10099 3506)" fill="#EB5757" />
                <use xlink:href="#path10_fill" transform="matrix(0.707107 -0.707107 0.707107 0.707107 10104.2 3512.11)" fill="#FFFFFF" />
                <use xlink:href="#path10_fill" transform="matrix(-0.707107 -0.707107 0.707107 -0.707107 10105.1 3520.95)" fill="#FFFFFF" />
            </g>
            <defs>
                <path id="path8_fill" d="M 10 0C 4.48 0 0 4.48 0 10C 0 15.52 4.48 20 10 20C 15.52 20 20 15.52 20 10C 20 4.48 15.52 0 10 0ZM 8 15L 3 10L 4.41 8.59L 8 12.17L 15.59 4.58L 17 6L 8 15Z" />
                <path id="path9_fill" d="M 20 10C 20 15.5228 15.5228 20 10 20C 4.47715 20 0 15.5228 0 10C 0 4.47715 4.47715 0 10 0C 15.5228 0 20 4.47715 20 10Z" />
                <path id="path10_fill" d="M 0 0L 1.25 0L 1.25 12.5L 0 12.5L 0 0Z" />
            </defs>
        </symbol>



    <symbol viewBox="0 0 490 490" id="icon_more">
        <g>
            <g>
                <path d="M304.5,245c0-32.8-26.7-59.5-59.5-59.5s-59.5,26.7-59.5,59.5s26.7,59.5,59.5,59.5S304.5,277.8,304.5,245z M245,280
                    c-19.3,0-35-15.7-35-35s15.7-35,35-35s35,15.7,35,35S264.3,280,245,280z"/>
                <path d="M59.5,185.5C26.7,185.5,0,212.2,0,245s26.7,59.5,59.5,59.5S119,277.8,119,245S92.3,185.5,59.5,185.5z M59.5,280
                    c-19.3,0-35-15.7-35-35s15.7-35,35-35s35,15.7,35,35S78.8,280,59.5,280z"/>
                <path d="M430.5,185.5c-32.8,0-59.5,26.7-59.5,59.5s26.7,59.5,59.5,59.5S490,277.8,490,245S463.3,185.5,430.5,185.5z M430.5,280
                    c-19.3,0-35-15.7-35-35s15.7-35,35-35s35,15.7,35,35S449.8,280,430.5,280z"/>
            </g>
        </g>
    </symbol>

    <symbol viewBox="0 0 16 16" id="icon_refresh">
        <g transform="translate(-10270 -2166)">
            <g>
                <use xlink:href="#path11_fill" transform="translate(10270 2166)" fill="#F7711E"/>
            </g>
        </g>
        <defs>
            <path id="path11_fill" d="M 13.64 2.35C 12.19 0.9 10.2 0 7.99 0C 3.57 0 2.28882e-07 3.58 2.28882e-07 8C 2.28882e-07 12.42 3.57 16 7.99 16C 11.72 16 14.83 13.45 15.72 10L 13.64 10C 12.82 12.33 10.6 14 7.99 14C 4.68 14 1.99 11.31 1.99 8C 1.99 4.69 4.68 2 7.99 2C 9.65 2 11.13 2.69 12.21 3.78L 8.99 7L 15.99 7L 15.99 0L 13.64 2.35Z"/>
        </defs>
    </symbol>

    <symbol viewBox="0 0 19 20" id="icon_medal">
        <g id="Canvas" transform="translate(-10067 -2166)">
        <g id="medal">
        <g id="Vector">
        <use xlink:href="#path12_fill" transform="translate(10068.3 2166)" fill="#FFD15C"/>
        </g>
        <g id="Group">
        <g id="Vector">
        <use xlink:href="#path13_fill" transform="translate(10067 2178.59)" fill="#40596B"/>
        </g>
        <g id="Vector">
        <use xlink:href="#path14_fill" transform="translate(10078.6 2178.56)" fill="#40596B"/>
        </g>
        </g>
        <g id="Vector">
        <use xlink:href="#path15_fill" transform="translate(10070.5 2168.19)" fill="#F8B64C"/>
        </g>
        <g id="Vector">
        <use xlink:href="#path16_fill" transform="translate(10072.3 2170.08)" fill="#FFFFFF"/>
        </g>
        </g>
        </g>
        <defs>
        <path id="path12_fill" d="M 8.215 15.8818C 12.752 15.8818 16.43 12.3265 16.43 7.94089C 16.43 3.55526 12.752 0 8.215 0C 3.67798 0 0 3.55526 0 7.94089C 0 12.3265 3.67798 15.8818 8.215 15.8818Z"/>
        <path id="path13_fill" d="M 2.82658 4.80589e-07L 0 4.73619L 3.29904 4.5669L 4.79786 7.41334L 7.41265 3.03148C 5.53912 2.56298 3.93033 1.47243 2.82658 4.80589e-07Z"/>
        <path id="path14_fill" d="M 4.57385 2.40294e-07C 3.47824 1.47637 1.86945 2.57085 -4.97178e-07 3.04722L 2.62294 7.43696L 4.12176 4.59052L 7.42079 4.75981L 4.57385 2.40294e-07Z"/>
        <path id="path15_fill" d="M 5.95456 11.5117C 9.24317 11.5117 11.9091 8.93474 11.9091 5.75587C 11.9091 2.57699 9.24317 0 5.95456 0C 2.66594 0 0 2.57699 0 5.75587C 0 8.93474 2.66594 11.5117 5.95456 11.5117Z"/>
        <path id="path16_fill" d="M 8.25549 3.23521C 8.43877 3.06199 8.33695 2.75884 8.08443 2.72341L 5.73438 2.3927C 5.63255 2.37695 5.54702 2.3179 5.50222 2.22735L 4.45142 0.168306C 4.33738 -0.056102 4.00747 -0.056102 3.89343 0.168306L 2.8467 2.22735C 2.8019 2.31396 2.7123 2.37695 2.61455 2.3927L 0.264493 2.72341C 0.011974 2.75884 -0.089848 3.06199 0.0934318 3.23521L 1.79182 4.83757C 1.86514 4.90843 1.89772 5.00686 1.88143 5.10134L 1.48228 7.36117C 1.43748 7.60526 1.70629 7.79424 1.93437 7.67613L 4.03598 6.60921C 4.12559 6.56196 4.23555 6.56196 4.32516 6.60921L 6.42676 7.67613C 6.65485 7.7903 6.91958 7.60526 6.87886 7.36117L 6.47564 5.10134C 6.45935 5.00292 6.49193 4.9045 6.56524 4.83757L 8.25549 3.23521Z"/>
        </defs>
    </symbol>

    <symbol id="icon_date" viewBox="0 0 16 18">
        <g id="Canvas" transform="translate(-10304 -2165)">
            <g id="Vector">
            <use xlink:href="#path17_fill" transform="translate(10304 2165)" fill="#F7711E"/>
            </g>
        </g>
        <defs>
            <path id="path17_fill" d="M 5.33333 8.1L 3.55556 8.1L 3.55556 9.9L 5.33333 9.9L 5.33333 8.1ZM 8.88889 8.1L 7.11111 8.1L 7.11111 9.9L 8.88889 9.9L 8.88889 8.1ZM 12.4444 8.1L 10.6667 8.1L 10.6667 9.9L 12.4444 9.9L 12.4444 8.1ZM 14.2222 1.8L 13.3333 1.8L 13.3333 0L 11.5556 0L 11.5556 1.8L 4.44444 1.8L 4.44444 0L 2.66667 0L 2.66667 1.8L 1.77778 1.8C 0.791111 1.8 0.00888888 2.61 0.00888888 3.6L 0 16.2C 0 17.19 0.791111 18 1.77778 18L 14.2222 18C 15.2 18 16 17.19 16 16.2L 16 3.6C 16 2.61 15.2 1.8 14.2222 1.8ZM 14.2222 16.2L 1.77778 16.2L 1.77778 6.3L 14.2222 6.3L 14.2222 16.2Z"/>
        </defs>
    </symbol>


    <symbol viewBox="0 0 25 19" id="icon_update">
        <g id="Canvas" transform="translate(-10453 -2284)">
        <g id="Vector">
        <use xlink:href="#path18_fill" transform="translate(10453.1 2284.5)" fill="#FFFFFF"/>
        </g>
        </g>
        <defs>
        <path id="path18_fill" d="M 20.25 4.5L 15.75 9L 19.125 9C 19.125 12.7238 16.0987 15.75 12.375 15.75C 11.2388 15.75 10.1587 15.4687 9.225 14.9625L 7.5825 16.605C 8.96625 17.4825 10.6088 18 12.375 18C 17.3475 18 21.375 13.9725 21.375 9L 24.75 9L 20.25 4.5ZM 5.625 9C 5.625 5.27625 8.65125 2.25 12.375 2.25C 13.5112 2.25 14.5913 2.53125 15.525 3.0375L 17.1675 1.395C 15.7838 0.5175 14.1412 0 12.375 0C 7.4025 0 3.375 4.0275 3.375 9L 0 9L 4.5 13.5L 9 9L 5.625 9Z"/>
        </defs>
    </symbol>

    <symbol viewBox="0 0 20 20" id="icon_message2">
        <g id="Canvas" transform="translate(-9815 -3560)">
        <g id="ic_chat_black_24px">
        <g id="Vector">
        <use xlink:href="#path19_fill" transform="translate(9815 3560)" fill="#094594"/>
        </g>
        </g>
        </g>
        <defs>
        <path id="path19_fill" d="M 18 0L 2 0C 0.9 0 0.00999999 0.9 0.00999999 2L 0 20L 4 16L 18 16C 19.1 16 20 15.1 20 14L 20 2C 20 0.9 19.1 0 18 0ZM 4 7L 16 7L 16 9L 4 9L 4 7ZM 12 12L 4 12L 4 10L 12 10L 12 12ZM 16 6L 4 6L 4 4L 16 4L 16 6Z"/>
        </defs>
    </symbol>

    <symbol viewBox="0 0 20 20" id="icon_order">
        <g id="Canvas" transform="translate(-10045 -3560)">
        <g id="ic_monetization_on_black_24px">
        <g id="Vector">
        <use xlink:href="#path20_fill" transform="translate(10045 3560)" fill="#094594"/>
        </g>
        </g>
        </g>
        <defs>
        <path id="path20_fill" d="M 10 0C 4.48 0 0 4.48 0 10C 0 15.52 4.48 20 10 20C 15.52 20 20 15.52 20 10C 20 4.48 15.52 0 10 0ZM 11.41 16.09L 11.41 18L 8.74 18L 8.74 16.07C 7.03 15.71 5.58 14.61 5.47 12.67L 7.43 12.67C 7.53 13.72 8.25 14.54 10.08 14.54C 12.04 14.54 12.48 13.56 12.48 12.95C 12.48 12.12 12.04 11.34 9.81 10.81C 7.33 10.21 5.63 9.19 5.63 7.14C 5.63 5.42 7.02 4.3 8.74 3.93L 8.74 2L 11.41 2L 11.41 3.95C 13.27 4.4 14.2 5.81 14.26 7.34L 12.3 7.34C 12.25 6.23 11.66 5.47 10.08 5.47C 8.58 5.47 7.68 6.15 7.68 7.11C 7.68 7.95 8.33 8.5 10.35 9.02C 12.37 9.54 14.53 10.41 14.53 12.93C 14.52 14.76 13.15 15.76 11.41 16.09Z"/>
        </defs>
    </symbol>

    <symbol viewBox="0 0 16 20" id="icon_subscribe">
        <g id="Canvas" transform="translate(-10212 -3560)">
        <g id="ic_description_black_24px">
        <g id="Vector">
        <use xlink:href="#path21_fill" transform="translate(10212 3560)" fill="#094594"/>
        </g>
        </g>
        </g>
        <defs>
        <path id="path21_fill" d="M 10 0L 2 0C 0.9 0 0.0100002 0.9 0.0100002 2L 0 18C 0 19.1 0.89 20 1.99 20L 14 20C 15.1 20 16 19.1 16 18L 16 6L 10 0ZM 12 16L 4 16L 4 14L 12 14L 12 16ZM 12 12L 4 12L 4 10L 12 10L 12 12ZM 9 7L 9 1.5L 14.5 7L 9 7Z"/>
        </defs>
    </symbol>

    <symbol viewBox="0 0 21 18" id="icon_log">
        <g id="Canvas" transform="translate(-10389 -3561)">
        <g id="ic_history_black_24px">
        <g id="Vector">
        <use xlink:href="#path22_fill" transform="translate(10389 3561)" fill="#094594"/>
        </g>
        </g>
        </g>
        <defs>
        <path id="path22_fill" d="M 12 0C 7.03 0 3 4.03 3 9L 0 9L 3.89 12.89L 3.96 13.03L 8 9L 5 9C 5 5.13 8.13 2 12 2C 15.87 2 19 5.13 19 9C 19 12.87 15.87 16 12 16C 10.07 16 8.32 15.21 7.06 13.94L 5.64 15.36C 7.27 16.99 9.51 18 12 18C 16.97 18 21 13.97 21 9C 21 4.03 16.97 0 12 0ZM 11 5L 11 10L 15.28 12.54L 16 11.33L 12.5 9.25L 12.5 5L 11 5Z"/>
        </defs>
    </symbol>
</defs>
</svg>