<!-- Generated by IcoMoon.io -->
<svg version="1.1" xmlns="http://www.w3.org/2000/svg" width="25" height="32" viewBox="0 0 25 32">
<title>pdf</title>
<path fill="#e9e9e0" d="M17.635 0h-16.644c-0.463 0-0.839 0.374-0.839 1.101v30.328c0 0.197 0.376 0.571 0.839 0.571h22.982c0.464 0 0.839-0.374 0.839-0.571v-24.013c0-0.398-0.054-0.526-0.147-0.62l-6.673-6.649c-0.092-0.091-0.218-0.147-0.357-0.147-0 0-0 0-0 0v0z"></path>
<path fill="#d9d7ca" d="M17.93 0.086v6.771h6.795z"></path>
<path fill="#cc4b4c" d="M7.616 19.042c-0.209-0-0.402-0.070-0.557-0.188l0.002 0.002c-0.597-0.446-0.678-0.943-0.64-1.281 0.104-0.93 1.259-1.904 3.432-2.896 0.863-1.883 1.683-4.204 2.173-6.143-0.573-1.241-1.129-2.851-0.723-3.796 0.143-0.33 0.32-0.584 0.65-0.694 0.131-0.043 0.461-0.098 0.583-0.098 0.289 0 0.543 0.371 0.723 0.599 0.169 0.215 0.553 0.67-0.214 3.887 0.773 1.591 1.868 3.211 2.918 4.321 0.752-0.136 1.399-0.205 1.926-0.205 0.898 0 1.442 0.209 1.664 0.638 0.184 0.355 0.109 0.771-0.224 1.234-0.319 0.445-0.76 0.68-1.273 0.68-0.697 0-1.51-0.439-2.415-1.306-1.627 0.339-3.527 0.944-5.063 1.613-0.479 1.014-0.939 1.83-1.367 2.429-0.588 0.82-1.095 1.203-1.597 1.203zM9.143 16.113c-1.226 0.686-1.725 1.25-1.761 1.568-0.006 0.053-0.021 0.191 0.247 0.395 0.086-0.027 0.584-0.254 1.514-1.963zM16.963 13.575c0.467 0.358 0.581 0.539 0.887 0.539 0.134 0 0.517-0.006 0.694-0.252 0.086-0.119 0.119-0.196 0.132-0.237-0.071-0.037-0.164-0.112-0.674-0.112-0.289 0-0.654 0.013-1.039 0.062zM12.679 9.814c-0.515 1.758-1.037 3.192-1.634 4.587l0.101-0.265c1.009-0.407 2.252-0.803 3.529-1.114l0.197-0.040c-0.774-0.896-1.548-2.015-2.191-3.168zM12.331 4.978c-0.056 0.019-0.763 1.004 0.055 1.838 0.544-1.209-0.031-1.846-0.055-1.838zM23.973 32h-0c0.001 0 0.001 0 0.002 0 0.462 0 0.837-0.374 0.838-0.836v-8.879h-24.66v8.879c0.001 0.462 0.376 0.836 0.838 0.836 0 0 0.001 0 0.001 0h22.982z"></path>
<path fill="#fff" d="M6.395 30.286h-0.941v-5.758h1.662c0.246 0 0.489 0.039 0.729 0.117s0.456 0.195 0.647 0.351c0.189 0.155 0.344 0.343 0.458 0.556l0.005 0.010c0.118 0.221 0.177 0.47 0.177 0.746 0 0.292-0.050 0.556-0.149 0.793-0.097 0.235-0.238 0.435-0.414 0.597l-0.001 0.001c-0.18 0.161-0.394 0.289-0.63 0.371l-0.013 0.004c-0.25 0.089-0.528 0.133-0.831 0.133h-0.698v2.078h0.001zM6.395 25.239v2.281h0.863c0.115 0 0.228-0.019 0.341-0.059 0.113-0.038 0.216-0.103 0.31-0.191s0.17-0.212 0.227-0.371 0.086-0.355 0.086-0.59c0-0.094-0.013-0.202-0.039-0.324-0.031-0.134-0.086-0.252-0.162-0.354l0.002 0.002c-0.081-0.112-0.195-0.206-0.341-0.281s-0.34-0.113-0.581-0.113l-0.705-0zM14.902 27.247c0 0.474-0.051 0.879-0.153 1.215s-0.231 0.617-0.389 0.844c-0.157 0.227-0.333 0.405-0.529 0.536-0.164 0.113-0.351 0.211-0.55 0.287l-0.018 0.006c-0.145 0.056-0.314 0.099-0.49 0.124l-0.012 0.001c-0.098 0.013-0.215 0.023-0.333 0.026l-0.005 0h-2.187v-5.758h1.741c0.486 0 0.914 0.077 1.282 0.23s0.675 0.358 0.918 0.613c0.243 0.255 0.424 0.546 0.545 0.871s0.181 0.661 0.181 1.005zM12.111 29.598c0.638 0 1.098-0.203 1.38-0.609s0.423-0.995 0.423-1.766c0-0.239-0.029-0.477-0.086-0.711-0.063-0.247-0.178-0.461-0.335-0.638l0.001 0.002c-0.165-0.191-0.388-0.344-0.671-0.461s-0.648-0.176-1.097-0.176h-0.549v4.359h0.933zM17.223 25.239v1.812h2.415v0.641h-2.415v2.594h-0.957v-5.758h3.614v0.711z"></path>
</svg>
