<!-- Generated by IcoMoon.io -->
<svg version="1.1" xmlns="http://www.w3.org/2000/svg" width="25" height="32" viewBox="0 0 25 32">
<title>png</title>
<path fill="#e9e9e0" d="M17.77 0h-16.644c-0.464 0-0.839 0.374-0.839 1.101v30.328c0 0.197 0.376 0.571 0.839 0.571h22.982c0.463 0 0.839-0.374 0.839-0.571v-24.013c0-0.398-0.053-0.526-0.147-0.62l-6.673-6.649c-0.092-0.091-0.217-0.147-0.357-0.147h-0z"></path>
<path fill="#659c35" d="M24.108 32h-22.982c-0.001 0-0.001 0-0.002 0-0.462 0-0.837-0.374-0.838-0.836v-8.879h24.66v8.879c-0.001 0.462-0.375 0.836-0.838 0.836-0 0-0.001 0-0.001 0h0z"></path>
<path fill="#d9d7ca" d="M18.065 0.086v6.771h6.795z"></path>
<path fill="#fff" d="M6.529 30.286h-0.941v-5.758h1.662c0.246 0 0.489 0.039 0.729 0.117s0.456 0.195 0.647 0.351c0.189 0.155 0.344 0.343 0.458 0.556l0.005 0.010c0.118 0.221 0.177 0.47 0.177 0.746 0 0.292-0.050 0.556-0.149 0.793-0.097 0.235-0.238 0.435-0.414 0.597l-0.001 0.001c-0.18 0.161-0.394 0.289-0.63 0.371l-0.013 0.004c-0.25 0.089-0.528 0.133-0.831 0.133h-0.698v2.078h0zM6.529 25.239v2.281h0.863c0.115 0 0.228-0.019 0.341-0.059 0.112-0.038 0.216-0.103 0.31-0.191s0.17-0.212 0.227-0.371c0.057-0.159 0.086-0.355 0.086-0.59 0-0.094-0.013-0.202-0.039-0.324-0.031-0.134-0.086-0.252-0.162-0.354l0.002 0.002c-0.081-0.112-0.195-0.206-0.341-0.281s-0.34-0.113-0.581-0.113l-0.705-0zM14.518 24.528v5.758h-0.957l-2.266-3.969v3.969h-0.957v-5.758h0.957l2.266 3.969v-3.969zM20.164 27.317v2.226c-0.114 0.145-0.247 0.268-0.397 0.367l-0.006 0.004c-0.279 0.184-0.61 0.315-0.966 0.369l-0.014 0.002c-0.176 0.026-0.349 0.039-0.521 0.039-0.345 0-0.662-0.062-0.953-0.187-0.301-0.132-0.554-0.32-0.758-0.552l-0.002-0.002c-0.217-0.245-0.387-0.552-0.51-0.922s-0.184-0.797-0.184-1.281c0-0.484 0.061-0.91 0.184-1.277s0.292-0.673 0.51-0.918c0.208-0.236 0.463-0.425 0.751-0.553l0.014-0.005c0.273-0.121 0.592-0.191 0.927-0.191 0.008 0 0.015 0 0.023 0h-0.001c0.314 0 0.606 0.052 0.878 0.156s0.515 0.261 0.729 0.469l-0.651 0.578c-0.114-0.141-0.258-0.253-0.424-0.325l-0.007-0.003c-0.148-0.064-0.321-0.102-0.502-0.102h-0c-0.193 0-0.378 0.036-0.553 0.109s-0.332 0.197-0.47 0.371c-0.139 0.175-0.247 0.4-0.325 0.676s-0.121 0.614-0.126 1.016c0.005 0.391 0.046 0.729 0.122 1.015s0.18 0.52 0.313 0.703 0.285 0.318 0.455 0.406c0.155 0.084 0.34 0.133 0.535 0.133 0.001 0 0.001 0 0.002 0h-0c0.057 0 0.134-0.004 0.231-0.012s0.193-0.021 0.29-0.039c0.108-0.020 0.201-0.046 0.291-0.078l-0.013 0.004c0.089-0.031 0.154-0.075 0.196-0.133v-1.422h-0.981v-0.64l1.913 0.001z"></path>
<path fill="#f3d55b" d="M10.036 8.246c0 1.442-1.173 2.611-2.62 2.611s-2.62-1.169-2.62-2.611c0-1.442 1.173-2.611 2.62-2.611s2.62 1.169 2.62 2.611z"></path>
<path fill="#88c057" d="M0.287 22.286h24.66v-6.286l-5.735-5.429-6.022 6.571-3.144-3.133z"></path>
</svg>
