<svg width="29px" height="23px" viewBox="0 0 29 23" version="1.1" xmlns="http://www.w3.org/2000/svg" xmlns:xlink="http://www.w3.org/1999/xlink">
    <!-- Generator: Sketch 51.1 (57501) - http://www.bohemiancoding.com/sketch -->
    <desc>Created with Sketch.</desc>
    <defs></defs>
    <g id="Page-1" stroke="none" stroke-width="1" fill="none" fill-rule="evenodd">
        <g id="Slient-Notary-1" transform="translate(-28.000000, -269.000000)" fill="#AFB5BB" fill-rule="nonzero">
            <g id="sidebar" transform="translate(-1.000000, 101.000000)">
                <g id="briefcase" transform="translate(29.000000, 168.000000)">
                    <path d="M17.88103,15.2999326 C17.88103,15.5503989 17.7824601,15.7673618 17.5858103,15.9501127 C17.3889427,16.1333696 17.155717,16.224821 16.8863508,16.224821 L11.9137169,16.224821 C11.6441874,16.224821 11.4111794,16.1333696 11.2143118,15.9501127 C11.0174987,15.7674124 10.9190921,15.5504495 10.9190921,15.2999326 L10.9190921,12.9881416 L0.47645745,12.9881416 L0.47645745,19.9238687 C0.47645745,20.5595239 0.71980687,21.1036771 1.20677785,21.556379 C1.69363997,22.0091315 2.27907195,22.2355078 2.96285606,22.2355078 L25.8372661,22.2355078 C26.5208869,22.2355078 27.1062644,22.0091315 27.593181,21.556379 C28.0802608,21.1036771 28.3235014,20.5595239 28.3235014,19.9238687 L28.3235014,12.9881416 L17.88103,12.9881416 L17.88103,15.2999326 Z" id="Shape"></path>
                    <rect id="Rectangle-path" x="12.4107571" y="12.9881416" width="3.97849903" height="1.84952385"></rect>
                    <path d="M27.5931266,4.41965115 C27.1062644,3.96684803 26.5208325,3.740573 25.8372116,3.740573 L20.367102,3.740573 L20.367102,1.42857963 C20.367102,1.04323896 20.2221592,0.715795556 19.9320013,0.446046969 C19.64217,0.176450211 19.2897461,0.041525308 18.8754915,0.041525308 L9.92463065,0.041525308 C9.51032159,0.041525308 9.15811536,0.176450211 8.8679575,0.446046969 C8.57779965,0.715643727 8.4328568,1.04318835 8.4328568,1.42857963 L8.4328568,3.740573 L2.96285606,3.740573 C2.27912638,3.740573 1.6936944,3.96684803 1.20677785,4.41965115 C0.71980687,4.87240365 0.47645745,5.41645568 0.47645745,6.05226272 L0.47645745,11.6008849 L28.323447,11.6008849 L28.323447,6.05226272 C28.323447,5.41645568 28.0802608,4.87240365 27.5931266,4.41965115 Z M18.3781791,3.740573 L10.4218886,3.740573 L10.4218886,1.89094793 L18.3781791,1.89094793 L18.3781791,3.740573 Z" id="Shape"></path>
                </g>
            </g>
        </g>
    </g>
</svg>