
<svg width="17px" height="13px" viewBox="0 0 17 13" version="1.1" xmlns="http://www.w3.org/2000/svg" xmlns:xlink="http://www.w3.org/1999/xlink">
    <!-- Generator: Sketch 51.1 (57501) - http://www.bohemiancoding.com/sketch -->
    <desc>Created with Sketch.</desc>
    <defs></defs>
    <g id="Welcome" stroke="none" stroke-width="1" fill="none" fill-rule="evenodd">
        <g id="Файлы" transform="translate(-1198.000000, -380.000000)" fill="#30B3FD" fill-rule="nonzero">
            <g id="документы" transform="translate(116.000000, 280.000000)">
                <g transform="translate(0.000000, 24.000000)" id="1">
                    <g transform="translate(26.000000, 73.000000)">
                        <g id="hover" transform="translate(1056.000000, 3.000000)">
                            <path d="M16.5129457,7.05314438 C16.2423599,7.05314438 16.0258913,7.2125775 16.0258913,7.41186891 L16.0258913,10.6749336 C16.0258913,11.5624446 15.0445671,12.2825509 13.8431664,12.2825509 L3.15683362,12.2825509 C1.95182513,12.2825509 0.974108659,11.5597874 0.974108659,10.6749336 L0.974108659,7.35872453 C0.974108659,7.15943313 0.757640068,7 0.487054329,7 C0.216468591,7 0,7.15943313 0,7.35872453 L0,10.6749336 C0,11.9583702 1.41786927,13 3.15683362,13 L13.8431664,13 C15.5857385,13 17,11.955713 17,10.6749336 L17,7.41186891 C17,7.21523472 16.7835314,7.05314438 16.5129457,7.05314438 Z" id="Shape"></path>
                            <path d="M8.16700227,8.89205397 C8.25862069,8.96221889 8.38195318,9 8.50176189,9 C8.6215706,9 8.7449031,8.96491754 8.83652152,8.89205397 L11.8599295,6.57661169 C12.0466902,6.43358321 12.0466902,6.2041979 11.8599295,6.06116942 C11.6731689,5.91814093 11.3736471,5.91814093 11.1868865,6.06116942 L8.97747294,7.75592204 L8.97747294,0.364317841 C8.97747294,0.16191904 8.76604581,0 8.50176189,0 C8.23747798,0 8.02605084,0.16191904 8.02605084,0.364317841 L8.02605084,7.75592204 L5.81311352,6.06116942 C5.62635288,5.91814093 5.32683111,5.91814093 5.14007048,6.06116942 C4.95330984,6.2041979 4.95330984,6.43358321 5.14007048,6.57661169 L8.16700227,8.89205397 Z" id="Shape"></path>
                        </g>
                    </g>
                </g>
            </g>
        </g>
    </g>
</svg>