
<svg width="17px" height="17px" viewBox="0 0 17 17" version="1.1" xmlns="http://www.w3.org/2000/svg" xmlns:xlink="http://www.w3.org/1999/xlink">
    <!-- Generator: Sketch 51.1 (57501) - http://www.bohemiancoding.com/sketch -->
    <desc>Created with Sketch.</desc>
    <defs></defs>
    <g id="Welcome" stroke="none" stroke-width="1" fill="none" fill-rule="evenodd">
        <g id="Файлы" transform="translate(-650.000000, -237.000000)" fill="#30B3FD">
            <g id="календар" transform="translate(374.000000, 237.000000)">
                <g id="calendar">
                    <g id="small-calendar" transform="translate(276.000000, 0.000000)">
                        <path d="M15.5836875,1.59375 L13.28125,1.59375 L13.28125,0.53125 C13.28125,0.23746875 13.0437813,0 12.75,0 C12.4562187,0 12.21875,0.23746875 12.21875,0.53125 L12.21875,1.59375 L9.03125,1.59375 L9.03125,0.53125 C9.03125,0.23746875 8.79325,0 8.5,0 C8.20675,0 7.96875,0.23746875 7.96875,0.53125 L7.96875,1.59375 L4.78125,1.59375 L4.78125,0.53125 C4.78125,0.23746875 4.54325,0 4.25,0 C3.95675,0 3.71875,0.23746875 3.71875,0.53125 L3.71875,1.59375 L1.41684375,1.59375 C0.6343125,1.59375 0,2.22753125 0,3.0100625 L0,15.5831563 C0,16.3656875 0.6343125,17 1.41684375,17 L15.5836875,17 C16.3662187,17 17,16.3656875 17,15.5831562 L17,3.0100625 C17,2.22753125 16.3662187,1.59375 15.5836875,1.59375 Z M16,15.65316 C16,15.84452 15.8398214,16 15.6432143,16 L1.35732143,16 C1.16017857,16 1,15.84452 1,15.65316 L1,3.34632 C1,3.15548 1.16017857,3 1.35732143,3 L3.67857143,3 L3.67857143,4.04 C3.67857143,4.32756 3.91857143,4.56 4.21428571,4.56 C4.51,4.56 4.75,4.32756 4.75,4.04 L4.75,3 L7.96428571,3 L7.96428571,4.04 C7.96428571,4.32756 8.20428571,4.56 8.5,4.56 C8.79571429,4.56 9.03571429,4.32756 9.03571429,4.04 L9.03571429,3 L12.25,3 L12.25,4.04 C12.25,4.32756 12.4894643,4.56 12.7857143,4.56 C13.0819643,4.56 13.3214286,4.32756 13.3214286,4.04 L13.3214286,3 L15.6432143,3 C15.8398214,3 16,3.15548 16,3.34632 L16,15.65316 Z" id="Shape" fill-rule="nonzero"></path>
                        <rect id="Rectangle-13" x="1" y="3" width="15" height="2"></rect>
                    </g>
                </g>
            </g>
        </g>
    </g>
</svg>