<svg width="24px" height="24px" viewBox="0 0 24 24" version="1.1" xmlns="http://www.w3.org/2000/svg" xmlns:xlink="http://www.w3.org/1999/xlink">
    <!-- Generator: Sketch 51.1 (57501) - http://www.bohemiancoding.com/sketch -->
    <desc>Created with Sketch.</desc>
    <defs></defs>
    <g id="Page-1" stroke="none" stroke-width="1" fill="none" fill-rule="evenodd">
        <g id="Slient-Notary-1" transform="translate(-31.000000, -683.000000)" fill="#AFB5BB" fill-rule="nonzero">
            <g id="sidebar" transform="translate(0.000000, 108.000000)">
                <g id="question-mark" transform="translate(31.000000, 575.000000)">
                    <path d="M11.8396946,0.000979553558 C5.21277553,0.0896758678 -0.0870901121,5.5343252 0.00108445906,12.1615051 C0.0897807733,18.7858154 5.53390836,24.0872463 12.1605665,23.9990717 C18.7861812,23.9098537 24.0870903,18.4652043 23.9989157,11.8385462 C23.9102194,5.21371411 18.465831,-0.0874558891 11.8396946,0.000979553558 Z M11.804216,19.304428 L11.7379547,19.3033845 C10.7174253,19.2731234 9.99794168,18.5212917 10.0268984,17.5158929 C10.0553334,16.5277116 10.7922954,15.8103149 11.7791724,15.8103149 L11.8383902,15.8113584 C12.8873546,15.8424021 13.5987512,16.5866686 13.5692727,17.6210241 C13.5400551,18.612075 12.8145714,19.304428 11.804216,19.304428 Z M16.0968568,10.7846253 C15.856855,11.1255843 15.3291119,11.5489788 14.6641504,12.0670696 L13.9318841,12.5726386 C13.5298811,12.8851627 13.2872706,13.1791649 13.1962264,13.4684714 C13.1244868,13.6962122 13.0892691,13.7564735 13.0830082,14.2197813 L13.0819647,14.3374344 L10.2859438,14.3374344 L10.2940308,14.1008239 C10.328205,13.1282949 10.3522052,12.5562037 10.7552517,12.0835045 C11.3876042,11.3410642 12.7824842,10.4428836 12.841702,10.4047963 C13.0415296,10.2542735 13.2100526,10.0828809 13.3355318,9.89974909 C13.6290123,9.49513737 13.7589263,9.17661326 13.7589263,8.86356744 C13.7589263,8.42921637 13.6300557,8.02747424 13.3751843,7.6698194 C13.1302259,7.32468639 12.6648312,7.14990248 11.9917827,7.14990248 C11.3242125,7.14990248 10.8671656,7.36173015 10.5937722,7.79634209 C10.3125527,8.24321499 10.1703778,8.71252284 10.1703778,9.19200468 L10.1703778,9.31122296 L7.28748667,9.31122296 L7.2927041,9.18678725 C7.36705248,7.42094798 7.99731806,6.14946023 9.16523982,5.40754165 C9.89907138,4.93510334 10.8121217,4.69562329 11.8775209,4.69562329 C13.27214,4.69562329 14.4494532,5.03449538 15.3763297,5.7028482 C16.3154671,6.38007064 16.7918185,7.39433908 16.7918185,8.7174794 C16.7918185,9.45757188 16.5580776,10.1527945 16.0968568,10.7846253 Z" id="Shape"></path>
                </g>
            </g>
        </g>
    </g>
</svg>