<svg width="22px" height="22px" viewBox="0 0 22 22" version="1.1" xmlns="http://www.w3.org/2000/svg" xmlns:xlink="http://www.w3.org/1999/xlink">
    <!-- Generator: Sketch 51.1 (57501) - http://www.bohemiancoding.com/sketch -->
    <desc>Created with Sketch.</desc>
    <defs></defs>
    <g id="Page-1" stroke="none" stroke-width="1" fill="none" fill-rule="evenodd">
        <g id="Slient-Notary-1" transform="translate(-1208.000000, -42.000000)" fill="#9DA1AE" fill-rule="nonzero">
            <g id="поиск" transform="translate(1208.000000, 40.000000)">
                <path d="M21.8097139,22.8780488 L16.4621867,17.5317073 C17.8966511,15.8829268 18.7651364,13.7317073 18.7651364,11.3804878 C18.7651364,6.20487805 14.5544467,2 9.3825682,2 C4.2058106,2 0,6.2097561 0,11.3804878 C0,16.5512195 4.21068973,20.7609756 9.3825682,20.7609756 C11.7343092,20.7609756 13.8860058,19.8926829 15.5351519,18.4585366 L20.8826791,23.804878 C21.0095365,23.9317073 21.1803061,24 21.3461965,24 C21.5120869,24 21.6828565,23.9365854 21.8097139,23.804878 C22.0634287,23.5512195 22.0634287,23.1317073 21.8097139,22.8780488 Z M1.31248614,11.3804878 C1.31248614,6.93170732 4.93280106,3.31707317 9.37768907,3.31707317 C13.8274562,3.31707317 17.442892,6.93658537 17.442892,11.3804878 C17.442892,15.8243902 13.8274562,19.4487805 9.37768907,19.4487805 C4.93280106,19.4487805 1.31248614,15.8292683 1.31248614,11.3804878 Z" id="Shape"></path>
            </g>
        </g>
    </g>
</svg>