
<svg width="8px" height="5px" viewBox="0 0 8 5" version="1.1" xmlns="http://www.w3.org/2000/svg" xmlns:xlink="http://www.w3.org/1999/xlink">
    <!-- Generator: Sketch 51.1 (57501) - http://www.bohemiancoding.com/sketch -->
    <desc>Created with Sketch.</desc>
    <defs></defs>
    <g id="Welcome" stroke="none" stroke-width="1" fill="none" fill-rule="evenodd">
        <g id="техническая-поддержка" transform="translate(-1444.000000, -48.000000)" fill="#000000" fill-rule="nonzero">
            <g id="меню" transform="translate(22.000000, 29.000000)">
                <g id="ru" transform="translate(1394.000000, 11.000000)">
                    <g id="caret-down" transform="translate(28.000000, 8.000000)">
                        <path d="M7.86134768,0.350986195 C7.76901499,0.25363515 7.65956473,0.205 7.5330991,0.205 L0.997431732,0.205 C0.870915,0.205 0.761541387,0.25363515 0.669132054,0.350986195 C0.57672272,0.448444899 0.530556376,0.563667411 0.530556376,0.696869048 C0.530556376,0.83004377 0.57672272,0.945266281 0.669132054,1.04264424 L3.93697851,4.48524311 C4.02949004,4.58259415 4.13886365,4.63133696 4.26527819,4.63133696 C4.39169273,4.63133696 4.50116853,4.58259415 4.59350122,4.48524311 L7.86134768,1.04261733 C7.95365482,0.945266281 8,0.83004377 8,0.696842133 C8,0.563667411 7.95365482,0.448444899 7.86134768,0.350986195 Z" id="Shape"></path>
                    </g>
                </g>
            </g>
        </g>
    </g>
</svg>