
<svg width="14px" height="12px" viewBox="0 0 14 12" version="1.1" xmlns="http://www.w3.org/2000/svg" xmlns:xlink="http://www.w3.org/1999/xlink">
    <!-- Generator: Sketch 51.1 (57501) - http://www.bohemiancoding.com/sketch -->
    <desc>Created with Sketch.</desc>
    <defs></defs>
    <g id="Welcome" stroke="none" stroke-width="1" fill="none" fill-rule="evenodd">
        <g id="Профиль" transform="translate(-172.000000, -656.000000)" fill="#000000" fill-rule="nonzero">
            <g id="фильтр-copy" transform="translate(116.000000, 243.000000)">
                <g id="telegram" transform="translate(56.000000, 383.000000)">
                    <g id="telegram-(1)" transform="translate(0.000000, 30.000000)">
                        <path d="M0.607377529,5.8215234 L3.74879643,6.99399986 L4.96471815,10.9043906 C5.04251969,11.1548371 5.34877235,11.2474082 5.55204705,11.0812164 L7.30312701,9.65370363 C7.48667866,9.50414472 7.74812273,9.49669177 7.93994533,9.63593471 L11.0982697,11.9289442 C11.3157232,12.0870013 11.6237937,11.967845 11.6783274,11.705083 L13.9919689,0.576054589 C14.0515016,0.289025081 13.769471,0.049576303 13.4961659,0.155280964 L0.603696498,5.12880795 C0.285537285,5.25150898 0.288309419,5.70195807 0.607377529,5.8215234 Z M4.76876007,6.36986065 L10.9082649,2.58853318 C11.0186049,2.52077494 11.1321261,2.6699703 11.0373736,2.75786059 L5.97050299,7.46776215 C5.79240473,7.63354487 5.67752021,7.8554065 5.64498172,8.09621863 L5.47238228,9.37530864 C5.44952353,9.54609029 5.2096203,9.56304121 5.16249402,9.39775839 L4.49868148,7.06530279 C4.42265229,6.79926879 4.53344677,6.51510231 4.76876007,6.36986065 Z" id="XMLID_497_"></path>
                    </g>
                </g>
            </g>
        </g>
    </g>
</svg>