<svg width="26px" height="25px" viewBox="0 0 26 25" version="1.1" xmlns="http://www.w3.org/2000/svg" xmlns:xlink="http://www.w3.org/1999/xlink">
    <!-- Generator: Sketch 51.1 (57501) - http://www.bohemiancoding.com/sketch -->
    <desc>Created with Sketch.</desc>
    <defs></defs>
    <g id="Page-1" stroke="none" stroke-width="1" fill="none" fill-rule="evenodd">
        <g id="Slient-Notary-1" transform="translate(-31.000000, -482.000000)" fill="#AFB5BB" fill-rule="nonzero">
            <g id="sidebar" transform="translate(0.000000, 108.000000)">
                <g id="wallet" transform="translate(31.000000, 374.000000)">
                    <path d="M18.5541383,18.8255426 C17.3433095,18.8254875 16.3582023,17.8404354 16.3582023,16.6296066 L16.3582023,12.9827922 C16.3582023,11.7719634 17.3433095,10.7869113 18.5541383,10.7869113 L24.2759822,10.7869113 C24.310645,10.7869113 24.3450874,10.7879583 24.3793645,10.7895014 L24.3793645,7.15668431 C24.3793645,6.22155989 23.6213014,5.46349685 22.686177,5.46349685 L1.69324257,5.46349685 C0.758063033,5.46344175 0,6.22150478 0,7.15662921 L0,22.4557145 C0,23.3908389 0.758063033,24.1489571 1.69324257,24.1489571 L22.686177,24.1489571 C23.6213014,24.1489571 24.3793645,23.390894 24.3793645,22.4557145 L24.3793645,18.8228975 C24.3450874,18.8244956 24.310645,18.8255426 24.2759822,18.8255426 L18.5541383,18.8255426 Z" id="Shape"></path>
                    <path d="M24.2759822,11.9901352 L18.5541383,11.9901352 C18.0059258,11.9901352 17.5614813,12.4345797 17.5614813,12.9827922 L17.5614813,16.6296066 C17.5614813,17.1778191 18.0059258,17.6222636 18.5541383,17.6222636 L24.2759822,17.6222636 C24.8241947,17.6222636 25.2686392,17.1778742 25.2686392,16.6296066 L25.2686392,12.9827922 C25.2686392,12.4345246 24.8241947,11.9901352 24.2759822,11.9901352 Z M20.5257855,16.2388922 C19.7344925,16.2388922 19.0930376,15.5974373 19.0930376,14.8061443 C19.0930376,14.0148513 19.7344925,13.3733963 20.5257855,13.3733963 C21.3170786,13.3733963 21.9585335,14.0148513 21.9585335,14.8061443 C21.9585335,15.5974373 21.3170786,16.2388922 20.5257855,16.2388922 Z" id="Shape"></path>
                    <path d="M19.7379092,2.3619191 C19.3590981,1.215346 18.1225339,0.5929584 16.9760159,0.971769485 L8.37407258,3.81362413 L20.2175124,3.81362413 L19.7379092,2.3619191 Z" id="Shape"></path>
                </g>
            </g>
        </g>
    </g>
</svg>