
<svg width="26px" height="19px" viewBox="0 0 26 19" version="1.1" xmlns="http://www.w3.org/2000/svg" xmlns:xlink="http://www.w3.org/1999/xlink">
    <!-- Generator: Sketch 51.1 (57501) - http://www.bohemiancoding.com/sketch -->
    <desc>Created with Sketch.</desc>
    <defs></defs>
    <g id="Welcome" stroke="none" stroke-width="1" fill="none" fill-rule="evenodd">
        <g id="Открытый-тикет" transform="translate(-116.000000, -154.000000)" fill="#29AAFD" fill-rule="nonzero">
            <g id="right-arrow-(3)" transform="translate(129.000000, 163.500000) scale(-1, 1) translate(-129.000000, -163.500000) translate(116.000000, 154.000000)">
                <path d="M17.1646697,1.16241442 C16.81741,0.803012702 16.2394532,0.803012702 15.8800514,1.16241442 C15.5327917,1.50967418 15.5327917,2.08763099 15.8800514,2.4340813 L22.3938028,8.94783265 L0.89931375,8.94783265 C0.398255954,8.94864211 0,9.34689806 0,9.84795586 C0,10.3490137 0.398255954,10.760221 0.89931375,10.760221 L22.3938028,10.760221 L15.8800514,17.2618304 C15.5327917,17.6212321 15.5327917,18.1999984 15.8800514,18.5464487 C16.2394532,18.9058504 16.8182194,18.9058504 17.1646697,18.5464487 L25.2204487,10.4906697 C25.5798504,10.14341 25.5798504,9.56545316 25.2204487,9.21900286 L17.1646697,1.16241442 Z" id="Shape"></path>
            </g>
        </g>
    </g>
</svg>