
<svg width="14px" height="15px" viewBox="0 0 14 15" version="1.1" xmlns="http://www.w3.org/2000/svg" xmlns:xlink="http://www.w3.org/1999/xlink">
    <!-- Generator: Sketch 51.1 (57501) - http://www.bohemiancoding.com/sketch -->
    <desc>Created with Sketch.</desc>
    <defs></defs>
    <g id="Welcome" stroke="none" stroke-width="1" fill="none" fill-rule="evenodd">
        <g id="Файлы" transform="translate(-1170.000000, -379.000000)" fill="#D63805" fill-rule="nonzero">
            <g id="документы" transform="translate(116.000000, 280.000000)">
                <g transform="translate(0.000000, 24.000000)" id="1">
                    <g transform="translate(26.000000, 73.000000)">
                        <g id="hover" transform="translate(1028.000000, 2.000000)">
                            <path d="M13.130218,2.13533652 L10.1709573,2.13533652 L10.1709573,1.65284837 C10.1709573,0.790218043 9.46915639,0.0884170993 8.60652606,0.0884170993 L5.79347394,0.0884170993 C4.93084361,0.0884170993 4.22904267,0.790218043 4.22904267,1.65284837 L4.22904267,2.13533652 L1.26978202,2.13533652 C1.05046923,2.13533652 0.875018991,2.31078676 0.875018991,2.53009955 C0.875018991,2.74941235 1.05046923,2.92486258 1.26978202,2.92486258 L1.98327965,2.92486258 L1.98327965,12.2003317 C1.98327965,13.3641516 2.93071092,14.3115829 4.09453082,14.3115829 L10.3054692,14.3115829 C11.4692891,14.3115829 12.4167204,13.3641516 12.4167204,12.2003317 L12.4167204,2.92486258 L13.130218,2.92486258 C13.3495308,2.92486258 13.524981,2.74941235 13.524981,2.53009955 C13.524981,2.31078676 13.3495308,2.13533652 13.130218,2.13533652 Z M5.01856873,1.65284837 C5.01856873,1.22591946 5.36654503,0.877943161 5.79347394,0.877943161 L8.60652606,0.877943161 C9.03345497,0.877943161 9.38143127,1.22591946 9.38143127,1.65284837 L9.38143127,2.13533652 L5.01856873,2.13533652 L5.01856873,1.65284837 Z M11.6271943,12.2003317 C11.6271943,12.9284502 11.0335877,13.5220568 10.3054692,13.5220568 L4.09453082,13.5220568 C3.36641234,13.5220568 2.77280571,12.9284502 2.77280571,12.2003317 L2.77280571,2.92486258 L11.6301185,2.92486258 L11.6301185,12.2003317 L11.6271943,12.2003317 Z" id="Shape"></path>
                            <path d="M7.2,12.1067583 C7.4193128,12.1067583 7.59476303,11.931308 7.59476303,11.7119952 L7.59476303,4.73492418 C7.59476303,4.51561139 7.4193128,4.34016115 7.2,4.34016115 C6.9806872,4.34016115 6.80523697,4.51561139 6.80523697,4.73492418 L6.80523697,11.7090711 C6.80523697,11.9283839 6.9806872,12.1067583 7.2,12.1067583 Z" id="Shape"></path>
                            <path d="M4.6238057,11.6710568 C4.8431185,11.6710568 5.01856873,11.4956066 5.01856873,11.2762938 L5.01856873,5.16770143 C5.01856873,4.94838864 4.8431185,4.7729384 4.6238057,4.7729384 C4.40449291,4.7729384 4.22904267,4.94838864 4.22904267,5.16770143 L4.22904267,11.2762938 C4.22904267,11.4956066 4.40741708,11.6710568 4.6238057,11.6710568 Z" id="Shape"></path>
                            <path d="M9.7761943,11.6710568 C9.99550709,11.6710568 10.1709573,11.4956066 10.1709573,11.2762938 L10.1709573,5.16770143 C10.1709573,4.94838864 9.99550709,4.7729384 9.7761943,4.7729384 C9.5568815,4.7729384 9.38143127,4.94838864 9.38143127,5.16770143 L9.38143127,11.2762938 C9.38143127,11.4956066 9.5568815,11.6710568 9.7761943,11.6710568 Z" id="Shape"></path>
                        </g>
                    </g>
                </g>
            </g>
        </g>
    </g>
</svg>