
<svg width="20px" height="19px" viewBox="0 0 20 19" version="1.1" xmlns="http://www.w3.org/2000/svg" xmlns:xlink="http://www.w3.org/1999/xlink">
    <!-- Generator: Sketch 51.1 (57501) - http://www.bohemiancoding.com/sketch -->
    <desc>Created with Sketch.</desc>
    <defs>
        <linearGradient x1="-33.3805247%" y1="0%" x2="171.120164%" y2="0%" id="linearGradient-1">
            <stop stop-color="#26DBFD" offset="0%"></stop>
            <stop stop-color="#1A49FB" offset="100%"></stop>
        </linearGradient>
    </defs>
    <g id="Welcome" stroke="none" stroke-width="1" fill="none" fill-rule="evenodd">
        <g id="транзакции" transform="translate(-1225.000000, -243.000000)" fill-rule="nonzero">
            <g id="фильтр" transform="translate(115.000000, 148.000000)">
                <g id="excel" transform="translate(1110.000000, 95.000000)">
                    <path d="M18.6793847,3.23478319 L11.029839,3.23478319 L11.029839,1.46950343 C11.029839,1.29415231 10.9521667,1.12821601 10.8168286,1.01641496 C10.6826674,0.904613911 10.5026088,0.856362931 10.333142,0.891668526 L0.918316588,2.65694828 C0.639402387,2.70872982 0.438160494,2.95116158 0.438160494,3.23478319 L0.438160494,16.1801681 C0.438160494,16.4626128 0.639402387,16.7062215 0.918316588,16.758003 L10.333142,18.5232827 C10.3684476,18.5303439 10.40493,18.5338744 10.4414125,18.5338744 C10.5779274,18.5338744 10.7109118,18.4868003 10.8168286,18.3985363 C10.9521667,18.2867353 11.029839,18.1196221 11.029839,17.9454478 L11.029839,16.1801681 L18.6793847,16.1801681 C19.0041961,16.1801681 19.2678112,15.916553 19.2678112,15.5917415 L19.2678112,3.82320978 C19.2678112,3.4983983 19.0041961,3.23478319 18.6793847,3.23478319 Z M8.5302029,11.6739973 C8.74439018,11.9176059 8.71967626,12.2894915 8.47489081,12.5036788 C8.36308975,12.6013576 8.22539793,12.6496086 8.08770611,12.6496086 C7.92412352,12.6496086 7.76171778,12.5813511 7.64520932,12.4483667 L5.93406481,10.4936136 L4.43357701,12.4236528 C4.31706855,12.5719363 4.14289428,12.6496086 3.96872001,12.6496086 C3.84279672,12.6496086 3.71569658,12.6095956 3.60742609,12.526039 C3.35087209,12.3259739 3.30497482,11.956442 3.50386301,11.6998881 L5.14439633,9.59096717 L3.52622322,7.74095399 C3.31203594,7.49734538 3.33674986,7.12545978 3.58153532,6.9112725 C3.82514392,6.69708522 4.19585267,6.72062229 4.41239366,6.9665846 L5.88110641,8.64477722 L7.62402596,6.40404878 C7.824091,6.14867165 8.1936229,6.10159752 8.45017689,6.30166256 C8.70673088,6.50055074 8.75262815,6.87008264 8.55256311,7.12781348 L6.66959804,9.54742361 L8.5302029,11.6739973 Z M18.0909581,15.0033149 L11.029839,15.0033149 L11.029839,13.8264617 L12.7951188,13.8264617 C13.1199303,13.8264617 13.3835454,13.5628466 13.3835454,13.2380352 C13.3835454,12.9132237 13.1199303,12.6496086 12.7951188,12.6496086 L11.029839,12.6496086 L11.029839,11.4727554 L12.7951188,11.4727554 C13.1199303,11.4727554 13.3835454,11.2091403 13.3835454,10.8843288 C13.3835454,10.5595173 13.1199303,10.2959022 12.7951188,10.2959022 L11.029839,10.2959022 L11.029839,9.11904905 L12.7951188,9.11904905 C13.1199303,9.11904905 13.3835454,8.85543394 13.3835454,8.53062247 C13.3835454,8.20581099 13.1199303,7.94219588 12.7951188,7.94219588 L11.029839,7.94219588 L11.029839,6.76534271 L12.7951188,6.76534271 C13.1199303,6.76534271 13.3835454,6.5017276 13.3835454,6.17691612 C13.3835454,5.85210465 13.1199303,5.58848954 12.7951188,5.58848954 L11.029839,5.58848954 L11.029839,4.41163636 L18.0909581,4.41163636 L18.0909581,15.0033149 Z" id="Shape" fill="url(#linearGradient-1)"></path>
                    <path d="M16.3256783,5.58848954 L15.1488251,5.58848954 C14.8240137,5.58848954 14.5603986,5.85210465 14.5603986,6.17691612 C14.5603986,6.5017276 14.8240137,6.76534271 15.1488251,6.76534271 L16.3256783,6.76534271 C16.6504898,6.76534271 16.9141049,6.5017276 16.9141049,6.17691612 C16.9141049,5.85210465 16.6504898,5.58848954 16.3256783,5.58848954 Z" id="Shape" fill="#536578" opacity="0.768024554"></path>
                    <path d="M16.3256783,7.94219588 L15.1488251,7.94219588 C14.8240137,7.94219588 14.5603986,8.20581099 14.5603986,8.53062247 C14.5603986,8.85543394 14.8240137,9.11904905 15.1488251,9.11904905 L16.3256783,9.11904905 C16.6504898,9.11904905 16.9141049,8.85543394 16.9141049,8.53062247 C16.9141049,8.20581099 16.6504898,7.94219588 16.3256783,7.94219588 Z" id="Shape" fill="#536578" opacity="0.768024554"></path>
                    <path d="M16.3256783,10.2959022 L15.1488251,10.2959022 C14.8240137,10.2959022 14.5603986,10.5595173 14.5603986,10.8843288 C14.5603986,11.2091403 14.8240137,11.4727554 15.1488251,11.4727554 L16.3256783,11.4727554 C16.6504898,11.4727554 16.9141049,11.2091403 16.9141049,10.8843288 C16.9141049,10.5595173 16.6504898,10.2959022 16.3256783,10.2959022 Z" id="Shape" fill="#536578" opacity="0.768024554"></path>
                    <path d="M16.3256783,12.6496086 L15.1488251,12.6496086 C14.8240137,12.6496086 14.5603986,12.9132237 14.5603986,13.2380352 C14.5603986,13.5628466 14.8240137,13.8264617 15.1488251,13.8264617 L16.3256783,13.8264617 C16.6504898,13.8264617 16.9141049,13.5628466 16.9141049,13.2380352 C16.9141049,12.9132237 16.6504898,12.6496086 16.3256783,12.6496086 Z" id="Shape" fill="#536578" opacity="0.768024554"></path>
                </g>
            </g>
        </g>
    </g>
</svg>