
<svg width="9px" height="18px" viewBox="0 0 9 18" version="1.1" xmlns="http://www.w3.org/2000/svg" xmlns:xlink="http://www.w3.org/1999/xlink">
    <!-- Generator: Sketch 51.1 (57501) - http://www.bohemiancoding.com/sketch -->
    <desc>Created with Sketch.</desc>
    <defs></defs>
    <g id="Welcome" stroke="none" stroke-width="1" fill="none" fill-rule="evenodd">
        <g id="Профиль" transform="translate(-172.000000, -559.000000)" fill="#000000" fill-rule="nonzero">
            <g id="фильтр-copy" transform="translate(116.000000, 243.000000)">
                <g id="facebook" transform="translate(56.000000, 289.000000)">
                    <g id="facebook-logo-(3)" transform="translate(0.000000, 27.000000)">
                        <path d="M8.66398601,0.59738421 L6.52376405,0.59395024 C4.11929808,0.59395024 2.56542654,2.18817093 2.56542654,4.65565025 L2.56542654,6.52836593 L0.413529085,6.52836593 C0.227579596,6.52836593 0.077,6.67911722 0.077,6.86506671 L0.077,9.57841831 C0.077,9.7643678 0.227751294,9.91494739 0.413529085,9.91494739 L2.56542654,9.91494739 L2.56542654,16.7615973 C2.56542654,16.9475468 2.71600614,17.0981264 2.90195563,17.0981264 L5.70956971,17.0981264 C5.89551919,17.0981264 6.04609879,16.9473751 6.04609879,16.7615973 L6.04609879,9.91494739 L8.56216879,9.91494739 C8.74811828,9.91494739 8.89869788,9.7643678 8.89869788,9.57841831 L8.89972807,6.86506671 C8.89972807,6.77578349 8.86418648,6.69027763 8.80117312,6.62709257 C8.73815977,6.56390752 8.65231051,6.52836593 8.56302729,6.52836593 L6.04609879,6.52836593 L6.04609879,4.94084148 C6.04609879,4.17781329 6.22792751,3.79046145 7.2218902,3.79046145 L8.66364261,3.78994635 C8.8494204,3.78994635 9,3.63919506 9,3.45341727 L9,0.933913294 C9,0.748307202 8.8495921,0.597727607 8.66398601,0.59738421 Z" id="Shape"></path>
                    </g>
                </g>
            </g>
        </g>
    </g>
</svg>