
<svg width="108px" height="29px" viewBox="0 0 108 29" version="1.1" xmlns="http://www.w3.org/2000/svg" xmlns:xlink="http://www.w3.org/1999/xlink">
    <!-- Generator: Sketch 51.1 (57501) - http://www.bohemiancoding.com/sketch -->
    <desc>Created with Sketch.</desc>
    <defs></defs>
    <g id="Welcome" stroke="none" stroke-width="1" fill="none" fill-rule="evenodd" opacity="0.800000012">
        <g id="Файлы" transform="translate(-990.000000, -1131.000000)" fill="#FEFEFE">
            <g id="футер" transform="translate(0.000000, 1099.000000)">
                <g id="Group-20" transform="translate(990.000000, 32.000000)">
                    <path d="M11.8877833,3 C12.0907144,3 12.2925292,3.00534752 12.4931036,3.01591214 L12.4931036,7.08146496 C12.4931036,7.21880502 12.4537206,7.35229748 12.3770632,7.46153044 L12.3132441,7.52863534 C12.2000566,7.64791121 12.0486645,7.71795072 11.8877833,7.71795072 L11.4293276,7.83553104 C9.59476061,7.95493733 7.94377435,8.78602079 6.72314849,10.0696874 C5.40180129,11.4590654 4.58449487,13.3790221 4.58449487,15.5000978 C4.58449487,17.6209779 5.40180129,19.5408694 6.72314849,20.9306387 C7.94377435,22.213914 9.59476061,23.0452583 11.4293276,23.164469 L11.8877833,23.2822449 C12.0467419,23.2822449 12.2002427,23.3432197 12.3132441,23.4619087 L12.322051,23.4713647 C12.4351144,23.590184 12.4931036,23.751588 12.4931036,23.9186655 L12.4931036,27.9840879 C12.2925292,27.9945873 12.0907144,28 11.8877833,28 C8.60534725,28 5.63313783,26.6005791 3.48201809,24.3387069 C1.33065027,22.0763783 0,18.9512071 0,15.5000978 C0,12.0485973 1.33083633,8.92342607 3.48201809,6.6614887 C5.63313783,4.39916005 8.60534725,3 11.8877833,3 Z M17.9944478,4.77368236 C18.8335855,5.30295679 19.6056789,5.93794264 20.2937966,6.66129306 C21.4680311,7.89611457 22.3976567,9.38794329 23,11.0497841 L17.840947,11.0497841 C17.6456444,10.7612787 17.4314875,10.4873159 17.2008332,10.2301783 C17.7149213,9.27890597 17.9944478,8.19896701 17.9944478,7.08146496 L17.9944478,4.77368236 Z M17.2018876,20.7685174 C17.4322318,20.5117711 17.6458305,20.23833 17.840947,19.9501506 L23,19.9501506 C22.3976567,21.6118611 21.4680311,23.1040159 20.2936105,24.3387069 C19.6055549,25.0620574 18.8335855,25.6968476 17.9944478,26.2264481 L17.9944478,23.9186655 C17.9944478,22.8012286 17.7161617,21.7199854 17.2018876,20.7685174 Z" id="Fill-15"></path>
                    <path d="M32.3040675,10 L32.3040675,19 L29.9261619,19 L29.9261619,15.5415152 L27.3654608,15.5415152 L27.3654608,19 L25,19 L25,10 L27.3654608,10 L27.3654608,13.2527403 L29.9261619,13.2527403 L29.9261619,10 L32.3040675,10 Z M39.1319786,17.5343347 L36.1078785,17.5343347 L35.6328477,19 L33.1207378,19 L36.4737823,10 L38.7660748,10 L42.1925378,19 L39.6075722,19 L39.1319786,17.5343347 Z M37.6200224,12.8028063 L36.6812174,15.5928854 L38.5590149,15.5928854 L37.6200224,12.8028063 Z M43.0217779,10 L45.3996835,10 L45.3996835,19 L43.0217779,19 L43.0217779,10 Z M54.6542791,10 L54.6542791,19 L52.7154455,19 L49.3258794,14.1142951 L49.3258794,19 L47.0577261,19 L47.0577261,10 L49.1066248,10 L52.3864385,14.7184716 L52.3864385,10 L54.6542791,10 Z M56.1541657,14.3586166 L60.6289983,14.3586166 L60.6289983,16.5314625 L56.1541657,16.5314625 L56.1541657,14.3586166 Z M62.1164401,10 L64.4941581,10 L64.4941581,19 L62.1164401,19 L62.1164401,10 Z M73.7490663,10 L73.7490663,19 L71.8102952,19 L68.4205415,14.1142951 L68.4205415,19 L66.1525133,19 L66.1525133,10 L68.2010993,10 L71.4812883,14.7184716 L71.4812883,10 L73.7490663,10 Z M75.2488278,14.3586166 L79.7236604,14.3586166 L79.7236604,16.5314625 L75.2488278,16.5314625 L75.2488278,14.3586166 Z M86.625115,16.7243479 L86.625115,19 L81.2114774,19 L81.2114774,10 L83.5890078,10 L83.5890078,16.7243479 L86.625115,16.7243479 Z M92.8680553,17.5343347 L89.8441428,17.5343347 L89.3689244,19 L86.8570021,19 L90.209859,10 L92.5023391,10 L95.928802,19 L93.3436489,19 L92.8680553,17.5343347 Z M91.356099,12.8028063 L90.4172941,15.5928854 L92.294904,15.5928854 L91.356099,12.8028063 Z M108,10 L105.366318,19 L103.305725,19 L101.659565,14.6543083 L100.062183,19 L97.9895202,19 L95.3190041,10 L97.8429335,10 L99.2206854,15.1814625 L101.257139,10.0383792 L102.074185,10.0383792 L104.147035,15.1941896 L105.500335,10 L108,10 Z" id="Fill-16"></path>
                    <g id="Group-19" transform="translate(5.000000, 0.000000)">
                        <path d="M0.5718,28.4378413 L0.5718,25.5408043 C1.94418,26.2835196 3.44766,26.7415304 5.00676,26.8823696 L5.00676,28.4378413 L0.5718,28.4378413 Z M7.06506,28.4378413 L7.06506,22.5169239 C7.06506,22.2158283 6.95178,21.9463174 6.76962,21.7549174 L6.76098,21.7458391 C6.68052,21.6612978 6.58506,21.5908783 6.47946,21.5387413 L6.03576,21.3364348 C4.31898,21.3364348 2.68656,20.6453522 1.45128,19.3994239 C1.66098,19.06025 1.90386,18.7451587 2.17512,18.4603283 L2.17938,18.4649935 C3.17364,17.4223804 4.53936,16.7754913 6.03576,16.7754913 C7.53072,16.7754913 8.89422,17.4206152 9.88818,18.4603283 L9.89244,18.4649935 L9.8967,18.4690913 C10.8864,19.5134065 11.50002,20.9461326 11.50002,22.5169239 L11.50002,28.4378413 L7.06506,28.4378413 Z" id="Fill-17"></path>
                        <path d="M0.5718,3.21616304 L0.5718,0.319378261 L5.00676,0.319378261 L5.00676,1.87478696 C3.44766,2.01543696 1.94418,2.47344783 0.5718,3.21616304 Z M11.50002,0.319378261 L11.50002,6.24004348 C11.50002,7.81247391 10.88466,9.24746957 9.89244,10.292037 L9.8967,10.2967022 C8.90754,11.3358478 7.54092,11.98135 6.03576,11.98135 C4.5312,11.98135 3.16446,11.3358478 2.17512,10.2967022 C1.90386,10.0116196 1.66098,9.69678043 1.45128,9.35773261 C2.6862,8.11161522 4.31898,7.42059565 6.03576,7.42059565 L6.47946,7.21311957 C6.58404,7.1596587 6.67914,7.08785217 6.76098,7.00186087 L6.76962,7.00186087 C6.95178,6.81046087 7.06506,6.54120217 7.06506,6.24004348 L7.06506,0.319378261 L11.50002,0.319378261 Z" id="Fill-18"></path>
                    </g>
                </g>
            </g>
        </g>
    </g>
</svg>