
<svg width="34px" height="32px" viewBox="0 0 34 32" version="1.1" xmlns="http://www.w3.org/2000/svg" xmlns:xlink="http://www.w3.org/1999/xlink">
    <!-- Generator: Sketch 51.1 (57501) - http://www.bohemiancoding.com/sketch -->
    <desc>Created with Sketch.</desc>
    <defs>
        <linearGradient x1="-33.3805247%" y1="0%" x2="171.120164%" y2="0%" id="linearGradient-1">
            <stop stop-color="#26DBFD" offset="0%"></stop>
            <stop stop-color="#1A49FB" offset="100%"></stop>
        </linearGradient>
    </defs>
    <g id="Page-1" stroke="none" stroke-width="1" fill="none" fill-rule="evenodd">
        <g id="Slient-Notary-1" transform="translate(-26.000000, -157.000000)" fill="url(#linearGradient-1)" fill-rule="nonzero">
            <g id="sidebar" transform="translate(-1.000000, 101.000000)">
                <g id="home-(1)" transform="translate(27.000000, 56.000000)">
                    <path d="M33.1136702,14.2347451 L18.1525088,0.60220273 C17.4958194,0.00373803972 16.5055423,0.00380316811 15.8491134,0.602137601 L0.88788692,14.2348102 C0.361844989,14.7141551 0.188082469,15.452711 0.44507906,16.116304 C0.702140778,16.7798971 1.32802452,17.2086372 2.03968233,17.2086372 L4.42924262,17.2086372 L4.42924262,30.8674263 C4.42924262,31.4089688 4.86833816,31.8480644 5.40988065,31.8480644 L13.6104556,31.8480644 C14.1519981,31.8480644 14.5910936,31.409034 14.5910936,30.8674263 L14.5910936,22.5742389 L19.410724,22.5742389 L19.410724,30.8674915 C19.410724,31.409034 19.8498196,31.8481295 20.391362,31.8481295 L28.5915462,31.8481295 C29.1330887,31.8481295 29.5721842,31.4090991 29.5721842,30.8674915 L29.5721842,17.2086372 L31.9622004,17.2086372 C32.6737931,17.2086372 33.299742,16.779832 33.5568037,16.116304 C33.8134746,15.4526458 33.6397121,14.7141551 33.1136702,14.2347451 Z" id="Shape"></path>
                    <path d="M29.3160343,2.11077141 L22.7303176,2.11077141 L30.2966723,8.99067303 L30.2966723,3.09134431 C30.2966723,2.54980182 29.8576419,2.11077141 29.3160343,2.11077141 Z" id="Shape"></path>
                </g>
            </g>
        </g>
    </g>
</svg>