
<svg width="8px" height="17px" viewBox="0 0 8 17" version="1.1" xmlns="http://www.w3.org/2000/svg" xmlns:xlink="http://www.w3.org/1999/xlink">
    <!-- Generator: Sketch 51.1 (57501) - http://www.bohemiancoding.com/sketch -->
    <desc>Created with Sketch.</desc>
    <defs></defs>
    <g id="Page-1" stroke="none" stroke-width="1" fill="none" fill-rule="evenodd" opacity="0.419642857">
        <g id="Slient-Notary-1" transform="translate(-1825.000000, -183.000000)" fill="#FFFFFF" fill-rule="nonzero">
            <g id="баланс" transform="translate(1277.000000, 146.000000)">
                <g id="info-(1)" transform="translate(548.000000, 37.000000)">
                    <path d="M8,15.2059031 L7.73920499,16.1554737 C6.95681994,16.4305258 6.33184869,16.6398694 5.86646593,16.7838025 C5.40058131,16.9281825 4.85925182,17 4.24247747,17 C3.29531815,17 2.55860151,16.7933384 2.03316396,16.3828462 C1.50772641,15.9707149 1.24492399,15.4484734 1.24492399,14.8149297 C1.24492399,14.5696773 1.26399431,14.317422 1.30364051,14.0603988 C1.34362127,13.8030775 1.40718901,13.5132745 1.49417644,13.1893506 L2.47194864,10.1068594 C2.55893608,9.81169236 2.63287539,9.53202124 2.69209376,9.26754802 C2.75214855,9.00471379 2.7810886,8.76288841 2.7810886,8.54520088 C2.7810886,8.15154553 2.68958451,7.87619538 2.50741275,7.72138542 C2.32524099,7.56702246 1.97762583,7.48864899 1.46155615,7.48864899 C1.20879075,7.48864899 0.948999435,7.52470674 0.684189616,7.59443827 C0.418208812,7.6644678 0.190870502,7.73211335 0,7.79499092 L0.261464149,6.84467532 C0.901992765,6.61238588 1.51425047,6.41347222 2.09991009,6.24838133 C2.6855697,6.08284344 3.2389436,6 3.76237375,6 C4.70300901,6 5.42885223,6.20248964 5.93856513,6.60746891 C6.44827803,7.01274619 6.70305083,7.53811665 6.70305083,8.1855173 C6.70305083,8.3194674 6.68632248,8.55548181 6.65035652,8.89281554 C6.61522698,9.23089426 6.54981912,9.54066318 6.45446752,9.82242029 L5.4808774,12.8925446 C5.40108316,13.139138 5.32931853,13.4210441 5.26692177,13.7382629 C5.20251762,14.0533958 5.17173745,14.2941782 5.17173745,14.4556931 C5.17173745,14.8633544 5.2737804,15.1416845 5.47836815,15.2896405 C5.68446145,15.4375965 6.03943709,15.511202 6.54362963,15.511202 C6.78033582,15.511202 7.0496623,15.4738033 7.34893252,15.4003468 C7.64736633,15.3268903 7.8650022,15.2623737 8,15.2059031 Z M8,2.00438411 C8,2.55662808 7.75699558,3.02826597 7.26865189,3.41606738 C6.78156543,3.80525324 6.19461906,4 5.50799238,4 C4.81921046,4 4.23082726,3.80525324 3.73817307,3.41606738 C3.2464169,3.02811214 3,2.55662808 3,2.00438411 C3,1.45321694 3.2464169,0.980809907 3.73817307,0.58808599 C4.22992924,0.195977387 4.81939006,0 5.50799238,0 C6.19443946,0 6.78156543,0.196438872 7.26865189,0.58808599 C7.75735479,0.980809907 8,1.45337076 8,2.00438411 Z" id="Shape"></path>
                </g>
            </g>
        </g>
    </g>
</svg>