
<svg width="296px" height="32px" viewBox="0 0 296 32" version="1.1" xmlns="http://www.w3.org/2000/svg" xmlns:xlink="http://www.w3.org/1999/xlink">
    <!-- Generator: Sketch 51.1 (57501) - http://www.bohemiancoding.com/sketch -->
    <desc>Created with Sketch.</desc>
    <defs>
        <linearGradient x1="100%" y1="50%" x2="0%" y2="50%" id="linearGradient-1">
            <stop stop-color="#123AFF" offset="1%"></stop>
            <stop stop-color="#03FFFF" stop-opacity="0" offset="100%"></stop>
        </linearGradient>
        <linearGradient x1="0%" y1="280%" x2="100%" y2="280%" id="linearGradient-2">
            <stop stop-color="#123AFF" offset="1%"></stop>
            <stop stop-color="#03FFFF" stop-opacity="0" offset="100%"></stop>
        </linearGradient>
        <linearGradient x1="28.2142857%" y1="-38%" x2="71.7857143%" y2="138%" id="linearGradient-3">
            <stop stop-color="#0060CC" offset="0%"></stop>
            <stop stop-color="#006BD0" offset="1%"></stop>
            <stop stop-color="#008ADD" offset="4%"></stop>
            <stop stop-color="#00A6E8" offset="7%"></stop>
            <stop stop-color="#00BCF0" offset="11%"></stop>
            <stop stop-color="#00CDF7" offset="15%"></stop>
            <stop stop-color="#00D8FC" offset="21%"></stop>
            <stop stop-color="#00DFFE" offset="29%"></stop>
            <stop stop-color="#00E1FF" offset="50%"></stop>
            <stop stop-color="#00DFFE" offset="71%"></stop>
            <stop stop-color="#00D8FC" offset="79%"></stop>
            <stop stop-color="#00CDF7" offset="85%"></stop>
            <stop stop-color="#00BCF0" offset="89%"></stop>
            <stop stop-color="#00A6E8" offset="93%"></stop>
            <stop stop-color="#008ADD" offset="96%"></stop>
            <stop stop-color="#006BD0" offset="99%"></stop>
            <stop stop-color="#0060CC" offset="100%"></stop>
        </linearGradient>
    </defs>
    <g id="Page-1" stroke="none" stroke-width="1" fill="none" fill-rule="evenodd">
        <g id="Slient-Notary-1" transform="translate(-22.000000, -33.000000)" fill-rule="nonzero">
            <g id="silentnotary" transform="translate(22.000000, 33.000000)">
                <rect id="Rectangle-path" fill="url(#linearGradient-1)" x="0.5" y="22" width="80" height="10"></rect>
                <rect id="Rectangle-path" fill="url(#linearGradient-2)" x="52.5" y="0" width="80" height="10"></rect>
                <polygon id="Shape" fill="url(#linearGradient-3)" points="52.5 10 70.5 22 80.5 22 62.5 10"></polygon>
                <path d="M171.8,11.4 C170.5654,10.1515419 168.852709,9.49561753 167.1,9.6 C165.832404,9.47970525 164.561857,9.797342 163.5,10.5 C162.722981,11.1292147 162.310496,12.104179 162.4,13.1 C162.392627,13.5833698 162.495211,14.0620934 162.7,14.5 C162.893989,14.890002 163.209998,15.2060108 163.6,15.4 C164.044341,15.7179593 164.558953,15.9238042 165.1,16 C165.7,16.2 166.5,16.4 167.4,16.6 C168.3,16.8 169.1,17 169.9,17.2 C170.584722,17.3766716 171.229539,17.6821114 171.8,18.1 C172.275714,18.456768 172.682368,18.89731 173,19.4 C173.305814,19.9843931 173.444239,20.6419115 173.4,21.3 C173.432612,21.9893753 173.295248,22.6761968 173,23.3 C172.712371,23.8523244 172.301836,24.3312816 171.8,24.7 C171.229539,25.1178886 170.584722,25.4233284 169.9,25.6 C169.083625,25.8102488 168.24294,25.9111309 167.4,25.9 C164.922548,25.9940712 162.510273,25.0939687 160.7,23.4 L161.3,22.4 C162.039307,23.1657966 162.922978,23.7775691 163.9,24.2 C164.997104,24.7000267 166.194971,24.9395999 167.4,24.9 C168.617675,24.9561971 169.827657,24.6796298 170.9,24.1 C171.742269,23.5527633 172.235732,22.6037971 172.2,21.6 C172.218583,21.1155943 172.11544,20.6342579 171.9,20.2 C171.645952,19.7958324 171.304168,19.4540481 170.9,19.2 C170.377151,18.871909 169.802276,18.635196 169.2,18.5 C168.533333,18.3 167.733333,18.1 166.8,17.9 C165.866667,17.7 165.066667,17.5 164.4,17.3 C163.767439,17.1136265 163.16222,16.8446405 162.6,16.5 C162.135427,16.2022155 161.756339,15.7886651 161.5,15.3 C161.239866,14.7353782 161.103483,14.1216553 161.1,13.5 C161.067388,12.8106247 161.204752,12.1238032 161.5,11.5 C161.785476,10.9182503 162.195105,10.406214 162.7,10 C163.270461,9.58211137 163.915278,9.27667158 164.6,9.1 C165.383487,8.89572845 166.190338,8.79487204 167,8.8 C168.020467,8.8032456 169.033641,8.97210801 170,9.3 C170.895437,9.62800914 171.712778,10.1388475 172.4,10.8 L171.8,11.4 Z" id="Shape" fill="#28345E"></path>
                <path d="M176.1,10.3 L176.1,8.1 L177.3,8.1 L177.3,10.3 L176.1,10.3 Z M176.1,25.6 L176.1,13.1 L177.3,13.1 L177.3,25.6 L176.1,25.6 Z" id="Shape" fill="#28345E"></path>
                <path d="M181.1,8.1 L182.3,8.1 L182.3,23.1 C182.262657,23.5081328 182.408653,23.9117488 182.698452,24.2015478 C182.988251,24.4913468 183.391867,24.6373429 183.8,24.6 C184.005148,24.6157617 184.211053,24.5814441 184.4,24.5 C184.6,24.4 184.9,24.4 185.1,24.3 L185.3,25.3 C185,25.4 184.7,25.5 184.3,25.6 C183.972663,25.6780508 183.63631,25.7116861 183.3,25.7 C182.70592,25.7345732 182.124862,25.5166764 181.7,25.1 C181.299232,24.6651764 181.083963,24.0911258 181.1,23.5 L181.1,8.1 Z" id="Shape" fill="#28345E"></path>
                <path d="M192.6,25.8 C191.774114,25.8002868 190.957062,25.6300676 190.2,25.3 C189.438168,24.9866788 188.755157,24.5085707 188.2,23.9 C187.618653,23.3032224 187.174941,22.5864573 186.9,21.8 C186.233333,20.2 186.233333,18.4 186.9,16.8 C187.151638,16.0314357 187.59978,15.341986 188.2,14.8 C188.790595,14.2779519 189.426431,13.8094411 190.1,13.4 C190.84184,13.0244074 191.66989,12.851897 192.5,12.9 C193.325886,12.8997132 194.142938,13.0699324 194.9,13.4 C195.631907,13.7154973 196.281851,14.1944029 196.8,14.8 C197.324343,15.4028841 197.761904,16.0760548 198.1,16.8 C198.418297,17.5957001 198.587775,18.4430855 198.6,19.3 L198.6,19.8 L187.7,19.8 C187.711453,20.4961408 187.88251,21.1803685 188.2,21.8 C188.508294,22.3711971 188.877078,22.9076101 189.3,23.4 C189.737907,23.8445822 190.244351,24.2159749 190.8,24.5 C191.35966,24.7745595 191.97673,24.9116862 192.6,24.9 C193.039474,24.8824148 193.475563,24.8153242 193.9,24.7 C194.316617,24.5764102 194.718886,24.4087981 195.1,24.2 C195.474933,23.9899527 195.812773,23.7196802 196.1,23.4 C196.388707,23.10907 196.625462,22.7708487 196.8,22.4 L197.9,22.7 C197.729076,23.1561539 197.455325,23.56678 197.1,23.9 C196.769605,24.3089557 196.361831,24.6487672 195.9,24.9 C195.438288,25.1848983 194.930825,25.3878837 194.4,25.5 C193.816432,25.6813794 193.21085,25.7823097 192.6,25.8 Z M197.5,18.9 C197.488547,18.2038592 197.31749,17.5196315 197,16.9 C196.727194,16.3078768 196.355169,15.7667491 195.9,15.3 C195.482608,14.856868 194.96958,14.5148492 194.4,14.3 C193.824968,14.0721889 193.217396,13.9371731 192.6,13.9 C191.975695,13.8775314 191.35603,14.0152348 190.8,14.3 C190.263212,14.5745467 189.759885,14.9100979 189.3,15.3 C188.854699,15.7747728 188.483831,16.3142169 188.2,16.9 C187.928486,17.5359865 187.759717,18.2110641 187.7,18.9 L197.5,18.9 Z" id="Shape" fill="#28345E"></path>
                <path d="M211.5,25.6 L210.3,25.6 L210.3,18.6 C210.407233,17.3903402 210.164238,16.1753656 209.6,15.1 C209.106245,14.3775446 208.274217,13.9615308 207.4,14 C206.852927,14.0025652 206.310843,14.104206 205.8,14.3 C205.279989,14.5273195 204.778472,14.794795 204.3,15.1 L203.1,16.3 C202.730613,16.7244595 202.488045,17.2442478 202.4,17.8 L202.4,25.5 L201.2,25.5 L201.2,13.1 L202.3,13.1 L202.3,16.1 C202.576347,15.6507604 202.876786,15.2167934 203.2,14.8 C203.588798,14.4124579 204.025695,14.0763828 204.5,13.8 C204.961712,13.5151017 205.469175,13.3121163 206,13.2 C206.51646,13.0353438 207.0589,12.9675388 207.6,13 C208.748562,12.9087017 209.857099,13.4438576 210.5,14.4 C211.131127,15.6696506 211.407531,17.0862211 211.3,18.5 L211.3,25.6 L211.5,25.6 Z" id="Shape" fill="#28345E"></path>
                <path d="M220.5,25 C220.4,25 220.3,25.1 220.2,25.2 C220.010608,25.3199412 219.809588,25.420451 219.6,25.5 C219.351421,25.6250496 219.078182,25.6933593 218.8,25.7 C218.5,25.7 218.2,25.8 217.9,25.8 C217.596405,25.8221838 217.29132,25.7882855 217,25.7 C216.706556,25.6287694 216.433051,25.4920167 216.2,25.3 C215.97891,25.1107791 215.807288,24.8705078 215.7,24.6 C215.576751,24.2805237 215.509107,23.9423047 215.5,23.6 L215.5,14.2 L213.7,14.2 L213.7,13.2 L215.5,13.2 L215.5,8.9 L216.7,8.9 L216.7,13.2 L219.6,13.2 L219.6,14.2 L216.7,14.2 L216.7,23.3 C216.672213,23.6994967 216.863731,24.0825314 217.2,24.3 C217.529792,24.5046117 217.911992,24.6088482 218.3,24.6 C218.751303,24.6074093 219.197581,24.5044223 219.6,24.3 C219.817343,24.1661835 220.053206,24.0650993 220.3,24 L220.5,25 Z" id="Shape" fill="#28345E"></path>
                <polygon id="Shape" fill="#28345E" points="225.4 10.8 225.4 25.5 224.2 25.5 224.2 8.5 225.1 8.5 237.1 23.5 237.1 8.5 238.3 8.5 238.3 25.5 237.2 25.5"></polygon>
                <path d="M247.4,25.8 C246.574114,25.8002868 245.757062,25.6300676 245,25.3 C244.268093,24.9845027 243.618149,24.5055971 243.1,23.9 C242.552543,23.2774291 242.11314,22.5676247 241.8,21.8 C241.133333,20.2 241.133333,18.4 241.8,16.8 C242.074941,16.0135427 242.518653,15.2967776 243.1,14.7 C243.618149,14.0944029 244.268093,13.6154973 245,13.3 C246.530303,12.6321211 248.269697,12.6321211 249.8,13.3 C250.531907,13.6154973 251.181851,14.0944029 251.7,14.7 C252.281347,15.2967776 252.725059,16.0135427 253,16.8 C253.666667,18.4 253.666667,20.2 253,21.8 C252.725059,22.5864573 252.281347,23.3032224 251.7,23.9 C251.161817,24.4836456 250.516876,24.9588652 249.8,25.3 C249.05816,25.6755926 248.23011,25.848103 247.4,25.8 Z M242.5,19.4 C242.487035,20.1200989 242.623223,20.83509 242.9,21.5 C243.173448,22.0998275 243.508587,22.6695638 243.9,23.2 C244.303412,23.6828679 244.818205,24.0603825 245.4,24.3 C246.610461,24.8336427 247.989539,24.8336427 249.2,24.3 C249.795721,23.9907513 250.336319,23.585303 250.8,23.1 C251.257492,22.5975524 251.62913,22.0232031 251.9,21.4 C252.194967,20.7406751 252.331935,20.021592 252.3,19.3 C252.312965,18.5799011 252.176777,17.86491 251.9,17.2 C251.62913,16.5767969 251.257492,16.0024476 250.8,15.5 C250.372026,15.017455 249.864721,14.6116113 249.3,14.3 C248.089539,13.7663573 246.710461,13.7663573 245.5,14.3 C244.91825,14.5854757 244.406214,14.9951047 244,15.5 C243.576252,16.0276228 243.207661,16.5972621 242.9,17.2 C242.678954,17.9146462 242.544657,18.653283 242.5,19.4 Z" id="Shape" fill="#28345E"></path>
                <path d="M261.8,25 C261.7,25 261.6,25.1 261.5,25.2 C261.322963,25.3405182 261.118637,25.4426813 260.9,25.5 C260.651421,25.6250496 260.378182,25.6933593 260.1,25.7 C259.807516,25.782476 259.503454,25.8162607 259.2,25.8 C258.896405,25.8221838 258.59132,25.7882855 258.3,25.7 C258.014844,25.6073914 257.745181,25.4725599 257.5,25.3 C257.27891,25.1107791 257.107288,24.8705078 257,24.6 C256.876751,24.2805237 256.809107,23.9423047 256.8,23.6 L256.8,14.2 L255,14.2 L255,13.2 L256.8,13.2 L256.8,8.9 L258,8.9 L258,13.2 L260.9,13.2 L260.9,14.2 L258,14.2 L258,23.3 C257.972213,23.6994967 258.163731,24.0825314 258.5,24.3 C258.829792,24.5046117 259.211992,24.6088482 259.6,24.6 C260.051303,24.6074093 260.497581,24.5044223 260.9,24.3 C261.117343,24.1661835 261.353206,24.0650993 261.6,24 L261.8,25 Z" id="Shape" fill="#28345E"></path>
                <path d="M267,25.8 C266.452091,25.8066093 265.908298,25.704648 265.4,25.5 C264.932588,25.2931483 264.495293,25.0240436 264.1,24.7 C263.715622,24.3708477 263.40836,23.9611657 263.2,23.5 C262.995172,23.0268029 262.892927,22.5155773 262.9,22 C262.890371,21.4724242 263.028956,20.9527299 263.3,20.5 C263.610449,20.0518856 263.980521,19.6481708 264.4,19.3 C264.901748,18.9743559 265.438436,18.7060121 266,18.5 C266.679438,18.2882765 267.388457,18.1869881 268.1,18.2 C268.770699,18.2170607 269.439204,18.2839112 270.1,18.4 C270.717946,18.4935726 271.322324,18.6614555 271.9,18.9 L271.9,17.7 C271.972824,16.6679011 271.610166,15.6524598 270.9,14.9 C270.176975,14.2076932 269.199552,13.8456848 268.2,13.9 C267.544553,13.8877844 266.894887,14.024556 266.3,14.3 C265.561071,14.5869907 264.856667,14.9559642 264.2,15.4 L263.7,14.6 C265.029778,13.6015463 266.637643,13.0422891 268.3,13 C269.633957,12.8750698 270.954209,13.3510358 271.901586,14.2984135 C272.848964,15.2457913 273.32493,16.5660428 273.2,17.9 L273.2,24 C273.2,24.4 273.4,24.6 273.7,24.6 L273.7,25.7 L273.2,25.7 C272.899612,25.7318964 272.600903,25.6262975 272.387303,25.4126971 C272.173702,25.1990966 272.068104,24.900388 272.1,24.6 L272.1,23.6 C271.532766,24.354077 270.772782,24.9413376 269.9,25.3 C268.966038,25.6196857 267.987092,25.7884695 267,25.8 Z M267.2,24.9 C268.089438,24.8886252 268.969783,24.7193281 269.8,24.4 C270.513574,24.1012801 271.134823,23.6180864 271.6,23 C271.858563,22.7315354 272.002088,22.372725 272,22 L272,19.8 C271.413794,19.5871572 270.811998,19.4199916 270.2,19.3 C269.572839,19.1839727 268.937574,19.1171027 268.3,19.1 C267.728185,19.1113284 267.158832,19.1783111 266.6,19.3 C266.119364,19.3754198 265.66922,19.5831783 265.3,19.9 C264.909998,20.0939892 264.593989,20.409998 264.4,20.8 C264.208453,21.1353419 264.105226,21.5138434 264.1,21.9 C264.117575,22.3066495 264.184738,22.7096316 264.3,23.1 C264.44936,23.4567868 264.690957,23.7674113 265,24 C265.268943,24.2917035 265.616053,24.4999697 266,24.6 C266.366392,24.8044597 266.780496,24.9079857 267.2,24.9 Z" id="Shape" fill="#28345E"></path>
                <path d="M282.7,14.2 C281.650477,14.2100782 280.63267,14.5610461 279.8,15.2 C278.960139,15.873381 278.334654,16.7768603 278,17.8 L278,25.6 L276.8,25.6 L276.8,13.1 L278,13.1 L278,16.2 C278.367569,15.3598971 278.954845,14.6344379 279.7,14.1 C280.3328,13.5320517 281.149795,13.212358 282,13.2 L282.7,13.2 L282.7,14.2 Z" id="Shape" fill="#28345E"></path>
                <path d="M285.8,29.8 L286.6,29.8 C286.7,29.8 286.9,29.7 287,29.7 C287.1,29.7 287.2,29.6 287.3,29.5 C287.421939,29.3475194 287.522841,29.1793488 287.6,29 C287.758528,28.5805738 287.959576,28.1784778 288.2,27.8 C288.4,27.3 288.7,26.6 289.1,25.6 L283.5,13.1 L284.7,13.1 L289.7,24.4 L294.3,13.1 L295.5,13.1 L288.7,29.5 C288.512354,29.9195073 288.197492,30.2693539 287.8,30.5 C287.307429,30.7622407 286.758028,30.8995909 286.2,30.9 L285.8,30.9 L285.8,29.8 Z" id="Shape" fill="#28345E"></path>
            </g>
        </g>
    </g>
</svg>