
<svg width="29px" height="28px" viewBox="0 0 29 28" version="1.1" xmlns="http://www.w3.org/2000/svg" xmlns:xlink="http://www.w3.org/1999/xlink">
    <!-- Generator: Sketch 51.1 (57501) - http://www.bohemiancoding.com/sketch -->
    <desc>Created with Sketch.</desc>
    <defs>
        <linearGradient x1="-33.3805247%" y1="0%" x2="171.120164%" y2="0%" id="linearGradient-1">
            <stop stop-color="#26DBFD" offset="0%"></stop>
            <stop stop-color="#1A49FB" offset="100%"></stop>
        </linearGradient>
    </defs>
    <g id="Welcome" stroke="none" stroke-width="1" fill="none" fill-rule="evenodd">
        <g id="Файлы" transform="translate(-28.000000, -278.000000)" fill="url(#linearGradient-1)" fill-rule="nonzero">
            <g id="sidebar" transform="translate(-1.000000, 101.000000)">
                <g id="male" transform="translate(29.000000, 177.000000)">
                    <path d="M18.0869375,19.6627407 C17.3713237,19.5487315 17.3550112,17.5784907 17.3550112,17.5784907 C17.3550112,17.5784907 19.4577701,15.4941759 19.9160737,12.6913889 C21.1488973,12.6913889 21.9104063,9.71165741 20.6773237,8.66327778 C20.7289799,7.55967593 22.2620312,0 14.5,0 C6.73790402,0 8.27114955,7.55967593 8.32248214,8.66327778 C7.08952902,9.71165741 7.85090848,12.6913889 9.08379687,12.6913889 C9.54203571,15.4941759 11.6448594,17.5784907 11.6448594,17.5784907 C11.6448594,17.5784907 11.6285469,19.5487315 10.912933,19.6627407 C8.60782143,20.0299815 0,23.8315 0,28 L14.5,28 L29,28 C29,23.8315 20.3921138,20.0299815 18.0869375,19.6627407 Z" id="Shape"></path>
                </g>
            </g>
        </g>
    </g>
</svg>