
<svg width="15px" height="18px" viewBox="0 0 15 18" version="1.1" xmlns="http://www.w3.org/2000/svg" xmlns:xlink="http://www.w3.org/1999/xlink">
    <!-- Generator: Sketch 51.1 (57501) - http://www.bohemiancoding.com/sketch -->
    <desc>Created with Sketch.</desc>
    <defs></defs>
    <g id="Welcome" stroke="none" stroke-width="1" fill="none" fill-rule="evenodd">
        <g id="техническая-поддержка" transform="translate(-1500.000000, -42.000000)" fill="#363B41" fill-rule="nonzero">
            <g id="меню" transform="translate(22.000000, 29.000000)">
                <g id="notification-(1)" transform="translate(1478.000000, 13.000000)">
                    <path d="M14.7448567,15.0606568 L13.4896334,12.9696111 C12.9109793,12.0044683 12.6048364,10.899765 12.6048364,9.77386208 L12.6048364,7.94217649 C12.6048364,5.12271018 10.3099467,2.82782044 7.4904804,2.82782044 C4.6710141,2.82782044 2.37612436,5.12271018 2.37612436,7.94217649 L2.37612436,9.77386208 C2.37612436,10.899765 2.06998152,12.0044683 1.49132738,12.9696111 L0.236104062,15.0606568 C0.168156037,15.1731614 0.166683373,15.3141947 0.23100111,15.428172 C0.296038055,15.5428686 0.418029418,15.6137619 0.549541724,15.6137619 L14.4313848,15.6137619 C14.5628971,15.6137619 14.6849228,15.5429028 14.7499254,15.428172 C14.8142432,15.3141604 14.8128048,15.1731614 14.7448567,15.0606568 Z M1.19470548,14.8831152 L2.11748349,13.3451404 C2.76480487,12.2667395 3.10673687,11.0319965 3.10673687,9.77386208 L3.10673687,7.94217649 C3.10673687,5.52454193 5.07284584,3.55843295 7.4904804,3.55843295 C9.90811496,3.55843295 11.8742239,5.52454193 11.8742239,7.94217649 L11.8742239,9.77386208 C11.8742239,11.0319965 12.2161559,12.2667395 12.8627581,13.3451404 L13.7862553,14.8831152 L1.19470548,14.8831152 Z" id="Shape"></path>
                    <path d="M7.4904804,0.2706253 C6.6845908,0.2706253 6.02922114,0.925994958 6.02922114,1.73188456 L6.02922114,3.19314382 C6.02922114,3.39476178 6.19289232,3.55843295 6.39454452,3.55843295 C6.59619672,3.55843295 6.7598679,3.39476178 6.7598679,3.19310957 L6.7598679,1.73188456 C6.7598679,1.32858016 7.087176,1.00127205 7.4904804,1.00127205 C7.89378481,1.00127205 8.22109291,1.32858016 8.22109291,1.73188456 L8.22109291,3.19314382 C8.22109291,3.39476178 8.38476409,3.55843295 8.58641629,3.55843295 C8.78806849,3.55843295 8.95173966,3.39476178 8.95173966,3.19310957 L8.95173966,1.73188456 C8.95173966,0.925994958 8.29637001,0.2706253 7.4904804,0.2706253 Z" id="Shape"></path>
                    <path d="M9.07153916,15.0635679 C8.96852118,14.8896908 8.74566947,14.8327021 8.57107319,14.9327748 C8.39644265,15.0350735 8.33801557,15.2593637 8.44028009,15.4332407 C8.53524978,15.59472 8.5871355,15.788324 8.5871355,15.9790168 C8.5871355,16.5832542 8.09543701,17.0749527 7.49119961,17.0749527 C6.88696221,17.0749527 6.39526373,16.5832542 6.39526373,15.9790168 C6.39526373,15.788324 6.44714944,15.59472 6.54211914,15.4332407 C6.64366445,15.2586102 6.58523736,15.0350393 6.41132604,14.9327748 C6.23525709,14.8326679 6.01312458,14.8896565 5.91086007,15.0635679 C5.74938076,15.3397437 5.66389777,15.6560924 5.66389777,15.979051 C5.66393201,16.9865586 6.4829386,17.8055994 7.4904804,17.8055994 C8.49802221,17.8055994 9.31702879,16.9865586 9.31850146,15.979051 C9.31850146,15.6560924 9.23301846,15.3397437 9.07153916,15.0635679 Z" id="Shape"></path>
                </g>
            </g>
        </g>
    </g>
</svg>