
<svg width="15px" height="15px" viewBox="0 0 15 15" version="1.1" xmlns="http://www.w3.org/2000/svg" xmlns:xlink="http://www.w3.org/1999/xlink">
    <!-- Generator: Sketch 51.1 (57501) - http://www.bohemiancoding.com/sketch -->
    <desc>Created with Sketch.</desc>
    <defs></defs>
    <g id="Welcome" stroke="none" stroke-width="1" fill="none" fill-rule="evenodd">
        <g id="Профиль" transform="translate(-172.000000, -752.000000)" fill="#000000" fill-rule="nonzero">
            <g id="фильтр-copy" transform="translate(116.000000, 243.000000)">
                <g id="slack" transform="translate(56.000000, 479.000000)">
                    <g transform="translate(0.000000, 30.000000)" id="Shape">
                        <path d="M14.9053216,8.04395508 C14.6779532,7.34176758 13.9256725,6.95833008 13.2248538,7.18614258 L11.8812281,7.62395508 C11.5836842,6.70520508 11.2664912,5.72833008 10.9689474,4.81145508 C11.7857895,4.54520508 12.3125731,4.37364258 12.3125731,4.37364258 C13.0133918,4.14583008 13.3960819,3.39208008 13.1687135,2.68989258 C12.941345,1.98770508 12.1890643,1.60426758 11.4882456,1.83208008 L10.1446199,2.26989258 C9.87888889,1.45145508 9.70766082,0.923642578 9.70766082,0.923642578 C9.48122807,0.222392578 8.72894737,-0.161982422 8.02812865,0.0658300781 C7.32730994,0.293642578 6.94461988,1.04739258 7.1719883,1.74958008 L7.60894737,3.09583008 L4.80192982,4.00989258 C4.5371345,3.19145508 4.36590643,2.66364258 4.36590643,2.66364258 C4.13760234,1.96145508 3.38532164,1.57708008 2.6854386,1.80583008 C1.98461988,2.03364258 1.60099415,2.78739258 1.82929825,3.48864258 L2.26625731,4.83583008 L0.879590643,5.28770508 C0.224619883,5.52489258 -0.143099415,6.23270508 0.0524561404,6.91333008 C0.256432749,7.62208008 1.00777778,8.05426758 1.70298246,7.82833008 C1.70859649,7.82645508 2.25409357,7.64926758 3.08964912,7.37645508 L4.00192982,10.1889551 L2.61526316,10.6408301 C1.96122807,10.8780176 1.59350877,11.5858301 1.78812865,12.2664551 C1.99210526,12.9752051 2.74345029,13.4083301 3.43865497,13.1814551 C3.44426901,13.1795801 3.98976608,13.0023926 4.82625731,12.7295801 L5.27725146,14.1189551 C5.51397661,14.7742676 6.22040936,15.1427051 6.8997076,14.9477051 C7.60707602,14.7433301 8.03935673,13.9905176 7.81292398,13.2939551 C7.81105263,13.2883301 7.63421053,12.7427051 7.3628655,11.9045801 C8.27982456,11.6064551 9.25479532,11.2886426 10.169883,10.9905176 L10.6208772,12.3798926 C10.8576023,13.0352051 11.5640351,13.4036426 12.2433333,13.2086426 C12.9507018,13.0042676 13.3829825,12.2514551 13.1565497,11.5548926 C13.1546784,11.5492676 12.9778363,11.0036426 12.7055556,10.1655176 C13.5223977,9.89926758 14.0491813,9.72770508 14.0491813,9.72770508 C14.7490643,9.49989258 15.1326901,8.74614258 14.9053216,8.04395508 Z M6.53853801,9.36395508 C6.24005848,8.44520508 5.92380117,7.46833008 5.62625731,6.55145508 C6.54321637,6.25333008 7.51818713,5.93551758 8.43327485,5.63739258 L9.34555556,8.44989258 L6.53853801,9.36395508 Z"></path>
                    </g>
                </g>
            </g>
        </g>
    </g>
</svg>