
<svg width="245px" height="55px" viewBox="0 0 245 55" version="1.1" xmlns="http://www.w3.org/2000/svg" xmlns:xlink="http://www.w3.org/1999/xlink">
    <!-- Generator: Sketch 51.1 (57501) - http://www.bohemiancoding.com/sketch -->
    <desc>Created with Sketch.</desc>
    <defs>
        <polygon id="path-1" points="0.142504119 0.0943825581 0.142504119 24.9374349 29.7819643 24.9374349 29.7819643 0.0943825581"></polygon>
    </defs>
    <g id="Welcome" stroke="none" stroke-width="1" fill="none" fill-rule="evenodd">
        <g id="транзакции" transform="translate(-416.000000, -363.000000)">
            <g id="пополнить">
                <g id="wm" transform="translate(398.000000, 316.000000)">
                    <g id="Group-2" transform="translate(2.000000, 0.000000)">
                        <g id="Rectangle-11"></g>
                    </g>
                    <g id="WebMoney_logo_blue" transform="translate(0.000000, 33.000000)">
                        <path d="M233.894749,14.7706873 C238.322799,14.7706873 242.535755,15.7476353 246.316284,17.4952193 C246.909194,17.7528087 247.505964,18.0611013 248.096915,18.3696673 L245.504676,20.5808793 L241.618531,16.7248567 L234.922273,22.3797133 L230.97902,18.3176247 L218.6656,28.8574947 L226.549041,37.1349027 L223.471438,39.7048647 L231.249262,47.9822727 L228.171376,50.5511687 L239.297074,62.3247833 L245.881897,56.5663607 L251.609103,62.7374347 C250.474033,63.5601133 249.231957,64.3843773 247.88344,65.1029433 C243.778314,67.3133627 239.025128,68.5962253 233.949303,68.5962253 C218.340406,68.5962253 205.651127,56.5169693 205.651127,41.660346 C205.596006,26.904118 218.287527,14.7706873 233.894749,14.7706873 Z M228.70942,40.0139773 L235.460288,34.2555547 L241.510162,40.6818127 L234.757902,46.4396887 L228.70942,40.0139773 Z M233.517216,51.11921 L240.213191,45.3098107 L246.316284,51.7355493 L239.565131,57.4942453 L233.517216,51.11921 Z M223.905796,29.063834 L230.654706,23.3054113 L236.703188,29.7316693 L229.952036,35.4898187 L223.905796,29.063834 Z M236.270505,25.9781467 L241.293394,21.659808 L245.83092,26.4412827 L240.808031,30.8106253 L236.270505,25.9781467 Z M245.236364,45.77158 L250.257578,41.452968 L254.794848,46.2843533 L249.771675,50.605644 L245.236364,45.77158 Z M249.664129,55.4893453 L254.687302,51.1699407 L259.220967,55.951142 L254.199753,60.319938 L249.664129,55.4893453 Z M251.716706,33.2786067 L255.064552,30.3992587 L258.087828,33.5879653 L254.740522,36.4662473 L251.716706,33.2786067 Z M247.396203,23.767454 L250.744333,20.8376487 L253.769823,24.07602 L250.419196,26.9550947 L247.396203,23.767454 Z M255.982598,42.790552 L259.330444,39.9114773 L262.408586,43.099118 L259.007521,45.9774 L255.982598,42.790552 Z M240.915577,35.6441153 L245.93875,31.3255033 L250.474062,36.105912 L245.453103,40.4253167 L240.915577,35.6441153 Z" id="Combined-Shape" fill="#036CB5" fill-rule="nonzero"></path>
                        <g id="Group" transform="translate(18.000000, 23.000000)">
                            <g id="Group-27" transform="translate(0.000000, 1.805880)">
                                <g id="Fill-25-Clipped">
                                    <mask id="mask-2" fill="white">
                                        <use xlink:href="#path-1"></use>
                                    </mask>
                                    <g id="path-1_2_"></g>
                                    <polygon id="Fill-25" fill="#036CB5" fill-rule="nonzero" mask="url(#mask-2)" points="15.0170555 7.450675 14.7612891 7.450675 9.95927084 24.9374349 6.0343084 24.9374349 0.142504119 0.0943825581 4.21487282 0.0943825581 8.28821054 18.6314558 8.5425804 18.6314558 13.269442 0.0943825581 16.5071071 0.0943825581 21.5622412 18.6314558 21.816782 18.6314558 25.5267343 0.0943825581 29.7819643 0.0943825581 23.8886494 24.9374349 19.9607229 24.9374349"></polygon>
                                </g>
                            </g>
                            <path d="M34.9487076,16.1671802 L43.2750522,16.1671802 C43.094414,12.489157 41.2386684,11.0188221 39.2756171,11.0188221 C37.057341,11.0188221 35.3470066,12.6652977 34.9487076,16.1671802 M46.1839888,22.7565529 L46.1839888,25.4200047 C44.547842,26.3307663 42.3669875,27.03205 39.7470778,27.03205 C33.6391517,27.03205 31.1300247,23.3879378 31.1300247,17.8523488 C31.1300247,12.5241337 33.9296036,8.66972384 39.3846898,8.66972384 C43.9292316,8.66972384 46.7311761,11.5098355 46.7311761,17.2198983 L46.7311761,18.5165244 L34.875774,18.5165244 C34.875774,22.719964 36.6566479,24.5775297 40.4037937,24.5775297 C42.367016,24.577557 44.1853115,23.9106762 46.1839888,22.7565529" id="Fill-28" fill="#036CB5" fill-rule="nonzero"></path>
                            <path d="M55.1897361,24.2223791 C56.3537097,24.7128459 57.6274685,24.7854227 58.5381554,24.7854227 C61.2286046,24.7854227 63.2629079,23.1712459 63.2629079,17.4963785 C63.2629079,13.0463529 61.5902801,11.6096285 59.1547707,11.6096285 C57.6989771,11.6096285 56.6448171,11.9962855 55.1897076,12.7656372 L55.1897076,24.2223791 L55.1897361,24.2223791 Z M55.2280127,10.1734506 C56.3162881,9.61466977 58.1706372,8.87627791 60.1352275,8.87627791 C64.6451124,8.87627791 67.0820183,11.8895517 67.0820183,17.4963785 C67.0820183,24.0491895 63.8084707,27.2377843 58.5381839,27.2377843 C56.6092196,27.2377843 53.6273494,26.6418953 51.4441578,25.5181855 L51.4441578,1.06312907 L55.2280412,0.188382558 L55.2280412,10.1734506 L55.2280127,10.1734506 Z" id="Fill-30" fill="#036CB5" fill-rule="nonzero"></path>
                            <polygon id="Fill-32" fill="#036CB5" fill-rule="nonzero" points="83.4498133 21.4719227 83.6319621 21.4719227 91.4127725 1.88478198 95.9246239 1.88478198 95.9246239 26.7296924 91.9971249 26.7296924 91.9971249 8.71803547 91.6692514 8.71803547 84.2494325 26.7296924 81.9241357 26.7296924 74.5026638 9.13912267 74.1765858 9.13912267 74.1765858 26.7296924 70.9033232 26.7296924 70.9033232 1.88478198 75.3049334 1.88478198"></polygon>
                            <path d="M111.97093,17.8512831 C111.97093,13.1213343 109.972252,11.1250366 107.499435,11.1250366 C105.100094,11.1250366 103.025433,13.1213616 103.025433,17.8512831 C103.025433,22.6521965 104.918771,24.5775297 107.499435,24.5775297 C110.0801,24.5775297 111.97093,22.6522238 111.97093,17.8512831 M99.2084603,17.8512831 C99.2084603,11.717182 102.700495,8.66972384 107.499435,8.66972384 C112.301283,8.66972384 115.791408,11.7171547 115.791408,17.8512831 C115.791408,23.841843 112.482348,27.03205 107.499435,27.03205 C102.51752,27.03205 99.2084603,23.841843 99.2084603,17.8512831" id="Fill-34" fill="#036CB5" fill-rule="nonzero"></path>
                            <path d="M118.667797,11.2645884 C120.304086,10.3169919 123.760381,8.66972384 127.941423,8.66972384 C132.305042,8.66972384 133.938567,10.3169919 133.938567,13.925089 L133.938567,26.6112087 L130.159158,26.6112087 L130.159158,14.7320407 C130.159158,11.9645331 128.743294,11.474039 126.886294,11.474039 C125.433408,11.474039 123.576408,12.1056698 122.450027,12.7362349 L122.450027,26.6111814 L118.667797,26.6112087 L118.667825,11.2645884 L118.667797,11.2645884 Z" id="Fill-36" fill="#036CB5" fill-rule="nonzero"></path>
                            <path d="M141.943849,16.1671802 L150.270878,16.1671802 C150.091921,12.489157 148.235178,11.0188221 146.2713,11.0188221 C144.052454,11.0188221 142.345483,12.6652977 141.943849,16.1671802 M153.179416,22.7565529 L153.179416,25.4200047 C151.543953,26.3307663 149.361873,27.03205 146.743075,27.03205 C140.637115,27.03205 138.126307,23.3879378 138.126307,17.8523488 C138.126307,12.5241337 140.924888,8.66972384 146.380402,8.66972384 C150.927737,8.66972384 153.729111,11.5098355 153.729111,17.2198983 L153.729111,18.5165244 L141.872312,18.5165244 C141.872312,22.719964 143.65444,24.5775297 147.40019,24.5775297 C149.361844,24.577557 151.182961,23.9106762 153.179416,22.7565529" id="Fill-38" fill="#036CB5" fill-rule="nonzero"></path>
                            <path d="M168.833978,8.66972384 L172.726136,8.66972384 L166.143386,26.1871703 C164.322554,31.0230605 162.106786,33.5461407 157.925458,33.5461407 L157.925458,30.6748233 C160.399786,30.6748233 161.924751,28.781789 162.799555,26.1871703 L155.816853,8.66972384 L159.817828,8.66972384 L164.472326,21.5639826 L164.690528,21.5639826 L168.833978,8.66972384 Z" id="Fill-40" fill="#036CB5" fill-rule="nonzero"></path>
                        </g>
                        <rect id="Rectangle-path" x="0" y="0" width="281" height="82"></rect>
                    </g>
                </g>
            </g>
        </g>
    </g>
</svg>