<!-- Generated by IcoMoon.io -->
<svg version="1.1" xmlns="http://www.w3.org/2000/svg" width="25" height="32" viewBox="0 0 25 32">
<title>doc</title>
<path fill="#e9e9e0" d="M17.714 0h-16.644c-0.464 0-0.839 0.374-0.839 1.101v30.328c0 0.197 0.376 0.571 0.839 0.571h22.982c0.463 0 0.839-0.374 0.839-0.571v-24.013c0-0.398-0.053-0.526-0.147-0.62l-6.673-6.649c-0.092-0.091-0.217-0.147-0.357-0.147h-0z"></path>
<path fill="#d9d7ca" d="M18.009 0.086v6.771h6.795z"></path>
<path fill="#8697cb" d="M7.113 7.429h-3.441c-0.317 0-0.574-0.256-0.574-0.571s0.257-0.571 0.574-0.571h3.441c0.317 0 0.574 0.256 0.574 0.571s-0.257 0.571-0.574 0.571zM8.833 10.286h-5.161c-0.317 0-0.574-0.256-0.574-0.571s0.257-0.571 0.574-0.571h5.161c0.317 0 0.574 0.256 0.574 0.571s-0.257 0.571-0.574 0.571zM11.127 10.286c-0.149 0-0.298-0.063-0.407-0.166-0.101-0.105-0.164-0.248-0.166-0.405v-0c0-0.149 0.063-0.297 0.166-0.406 0.212-0.211 0.602-0.211 0.814 0 0.103 0.109 0.166 0.257 0.166 0.406s-0.063 0.297-0.166 0.406c-0.106 0.101-0.249 0.163-0.406 0.166h-0zM18.009 10.286h-4.588c-0.317 0-0.574-0.256-0.574-0.571s0.257-0.571 0.574-0.571h4.588c0.317 0 0.574 0.256 0.574 0.571s-0.257 0.571-0.574 0.571zM3.672 18.857c-0.149 0-0.298-0.063-0.407-0.166-0.101-0.105-0.164-0.248-0.167-0.405v-0c0-0.149 0.063-0.297 0.167-0.406 0.212-0.211 0.602-0.211 0.814 0 0.104 0.109 0.167 0.251 0.167 0.406 0 0.149-0.063 0.297-0.166 0.406-0.106 0.101-0.249 0.163-0.406 0.166h-0zM10.554 18.857h-4.588c-0.317 0-0.574-0.256-0.574-0.571s0.257-0.571 0.574-0.571h4.588c0.317 0 0.573 0.256 0.573 0.571s-0.257 0.571-0.573 0.571zM21.45 10.286h-1.147c-0.317 0-0.574-0.256-0.574-0.571s0.257-0.571 0.574-0.571h1.147c0.317 0 0.573 0.256 0.573 0.571s-0.257 0.571-0.573 0.571zM16.289 13.143h-12.617c-0.317 0-0.574-0.256-0.574-0.571s0.257-0.571 0.574-0.571h12.616c0.317 0 0.574 0.256 0.574 0.571s-0.257 0.571-0.574 0.571zM21.45 13.143h-3.441c-0.317 0-0.574-0.256-0.574-0.571s0.257-0.571 0.574-0.571h3.441c0.317 0 0.573 0.256 0.573 0.571s-0.257 0.571-0.573 0.571zM5.966 16h-2.294c-0.317 0-0.574-0.256-0.574-0.571s0.257-0.571 0.574-0.571h2.294c0.317 0 0.574 0.256 0.574 0.571s-0.258 0.571-0.574 0.571zM13.995 16h-5.735c-0.317 0-0.573-0.256-0.573-0.571s0.257-0.571 0.573-0.571h5.735c0.317 0 0.574 0.256 0.574 0.571s-0.258 0.571-0.574 0.571zM21.45 16h-5.162c-0.317 0-0.573-0.256-0.573-0.571s0.257-0.571 0.573-0.571h5.162c0.317 0 0.573 0.256 0.573 0.571s-0.257 0.571-0.573 0.571z"></path>
<path fill="#0096e6" d="M24.052 32h-22.982c-0.001 0-0.001 0-0.002 0-0.462 0-0.837-0.374-0.838-0.836v-8.879h24.66v8.879c-0.001 0.462-0.375 0.836-0.838 0.836-0 0-0.001 0-0.001 0h0z"></path>
<path fill="#fff" d="M9.981 27.247c0 0.474-0.051 0.879-0.153 1.215s-0.231 0.617-0.389 0.844c-0.157 0.227-0.333 0.405-0.529 0.536-0.164 0.113-0.351 0.211-0.55 0.287l-0.018 0.006c-0.145 0.056-0.314 0.099-0.49 0.124l-0.012 0.001c-0.098 0.013-0.214 0.023-0.332 0.026l-0.005 0h-2.187v-5.758h1.74c0.486 0 0.914 0.077 1.282 0.23s0.674 0.358 0.918 0.613c0.243 0.255 0.424 0.546 0.545 0.871s0.181 0.661 0.181 1.005zM7.189 29.598c0.638 0 1.098-0.203 1.38-0.609s0.423-0.995 0.423-1.766c0-0.239-0.029-0.477-0.086-0.711-0.063-0.247-0.178-0.461-0.335-0.638l0.001 0.002c-0.165-0.191-0.389-0.344-0.671-0.461s-0.648-0.176-1.097-0.176h-0.549v4.359h0.933zM15.701 27.379c0 0.485-0.061 0.911-0.184 1.281s-0.293 0.677-0.51 0.922c-0.206 0.235-0.46 0.423-0.747 0.549l-0.014 0.005c-0.29 0.125-0.608 0.188-0.952 0.188s-0.663-0.063-0.953-0.188c-0.3-0.132-0.554-0.32-0.758-0.552l-0.002-0.002c-0.217-0.245-0.387-0.552-0.51-0.922s-0.184-0.797-0.184-1.281c0-0.484 0.062-0.91 0.184-1.277s0.292-0.673 0.51-0.918c0.207-0.235 0.46-0.424 0.747-0.553l0.014-0.006c0.29-0.128 0.608-0.191 0.953-0.191s0.662 0.063 0.952 0.191c0.3 0.134 0.554 0.323 0.758 0.556l0.002 0.002c0.217 0.245 0.387 0.551 0.51 0.918 0.122 0.367 0.184 0.793 0.184 1.277zM13.27 29.559c0.193 0 0.377-0.038 0.553-0.113s0.332-0.199 0.47-0.371c0.138-0.172 0.247-0.397 0.325-0.676s0.12-0.618 0.125-1.019c-0.005-0.391-0.046-0.723-0.121-0.996s-0.18-0.499-0.314-0.676c-0.134-0.177-0.285-0.304-0.455-0.383-0.156-0.074-0.339-0.117-0.532-0.117-0.002 0-0.004 0-0.005 0h0c-0.193 0-0.378 0.036-0.553 0.109s-0.332 0.197-0.47 0.371c-0.139 0.175-0.247 0.399-0.325 0.676s-0.121 0.614-0.126 1.015c0.005 0.391 0.046 0.724 0.122 1s0.18 0.501 0.314 0.676 0.285 0.302 0.455 0.383c0.17 0.081 0.349 0.121 0.537 0.121zM20.938 29.7c-0.203 0.199-0.445 0.358-0.714 0.463l-0.015 0.005c-0.272 0.104-0.565 0.156-0.878 0.156-0.345 0-0.662-0.062-0.952-0.187-0.301-0.132-0.555-0.32-0.759-0.552l-0.002-0.002c-0.217-0.245-0.387-0.552-0.51-0.922s-0.184-0.797-0.184-1.281c0-0.484 0.062-0.91 0.184-1.277s0.292-0.673 0.51-0.918c0.208-0.236 0.463-0.425 0.751-0.553l0.014-0.005c0.273-0.121 0.592-0.191 0.927-0.191 0.008 0 0.015 0 0.023 0h-0.001c0.314 0 0.606 0.052 0.878 0.156s0.514 0.261 0.729 0.469l-0.651 0.578c-0.131-0.152-0.276-0.261-0.435-0.328-0.147-0.064-0.318-0.102-0.497-0.102v0c-0.193 0-0.378 0.036-0.553 0.109s-0.332 0.197-0.47 0.371c-0.139 0.175-0.247 0.4-0.325 0.676s-0.12 0.614-0.126 1.016c0.005 0.391 0.046 0.723 0.122 1s0.18 0.501 0.313 0.676c0.134 0.175 0.285 0.302 0.455 0.383 0.156 0.077 0.339 0.121 0.533 0.121 0.002 0 0.003 0 0.005 0h-0c0.189 0 0.365-0.034 0.529-0.102s0.315-0.177 0.45-0.328l0.65 0.571z"></path>
</svg>
