<!-- Generated by IcoMoon.io -->
<svg version="1.1" xmlns="http://www.w3.org/2000/svg" width="25" height="32" viewBox="0 0 25 32">
<title>jpg</title>
<path fill="#e9e9e0" d="M17.579 0h-16.644c-0.464 0-0.839 0.374-0.839 1.101v30.328c0 0.197 0.376 0.571 0.839 0.571h22.982c0.463 0 0.839-0.374 0.839-0.571v-24.013c0-0.398-0.053-0.526-0.147-0.62l-6.673-6.649c-0.092-0.091-0.217-0.147-0.357-0.147h-0z"></path>
<path fill="#d9d7ca" d="M17.875 0.086v6.771h6.795z"></path>
<path fill="#f3d55b" d="M9.846 8.246c0 1.442-1.173 2.611-2.62 2.611s-2.62-1.169-2.62-2.611c0-1.442 1.173-2.611 2.62-2.611s2.62 1.169 2.62 2.611z"></path>
<path fill="#26b99a" d="M0.096 22.286h24.66v-6.286l-5.735-5.429-6.022 6.571-3.144-3.133z"></path>
<path fill="#14a085" d="M23.918 32h-22.982c-0.001 0-0.001 0-0.002 0-0.462 0-0.837-0.374-0.838-0.836v-8.879h24.66v8.879c-0.001 0.462-0.375 0.836-0.838 0.836-0 0-0.001 0-0.001 0h0z"></path>
<path fill="#fff" d="M8.656 24.371v4.484c0 0.271-0.050 0.499-0.149 0.683s-0.233 0.333-0.4 0.445c-0.165 0.11-0.358 0.191-0.566 0.232l-0.010 0.002c-0.199 0.042-0.428 0.067-0.663 0.067-0.002 0-0.005 0-0.007 0h0c-0.115 0-0.25-0.012-0.403-0.035-0.185-0.029-0.346-0.067-0.503-0.116l0.024 0.007c-0.198-0.059-0.355-0.116-0.509-0.181l0.034 0.013c-0.147-0.058-0.273-0.129-0.389-0.214l0.005 0.003 0.4-0.633c0.052 0.036 0.127 0.075 0.224 0.113s0.202 0.075 0.318 0.109c0.115 0.034 0.235 0.063 0.361 0.090s0.243 0.039 0.353 0.039c0.277 0 0.498-0.054 0.663-0.16s0.252-0.288 0.263-0.543v-4.406h0.957zM11.001 30.247h-0.941v-5.758h1.662c0.246 0 0.489 0.039 0.729 0.117s0.456 0.195 0.647 0.351c0.189 0.155 0.344 0.343 0.458 0.557l0.005 0.010c0.118 0.221 0.177 0.47 0.177 0.746 0 0.292-0.050 0.556-0.149 0.793-0.097 0.236-0.238 0.435-0.414 0.597l-0.001 0.001c-0.18 0.161-0.394 0.289-0.63 0.371l-0.013 0.004c-0.25 0.089-0.528 0.133-0.831 0.133h-0.698v2.079h0zM11.001 25.2v2.281h0.863c0.115 0 0.228-0.019 0.341-0.059s0.216-0.103 0.31-0.191c0.094-0.089 0.17-0.212 0.227-0.371s0.086-0.355 0.086-0.59c0-0.094-0.013-0.202-0.039-0.324-0.031-0.134-0.086-0.252-0.162-0.354l0.002 0.002c-0.081-0.112-0.195-0.206-0.341-0.282s-0.34-0.113-0.581-0.113h-0.705zM19.022 27.278v2.226c-0.114 0.145-0.247 0.267-0.397 0.367l-0.006 0.004c-0.279 0.184-0.61 0.314-0.966 0.369l-0.014 0.002c-0.155 0.025-0.335 0.040-0.517 0.040-0.001 0-0.003 0-0.004 0h0c-0.345 0-0.662-0.062-0.953-0.187-0.301-0.132-0.554-0.32-0.758-0.553l-0.002-0.002c-0.217-0.245-0.387-0.552-0.51-0.922s-0.184-0.797-0.184-1.281c0-0.484 0.062-0.91 0.184-1.277s0.292-0.673 0.51-0.918c0.208-0.236 0.463-0.425 0.751-0.553l0.014-0.005c0.273-0.121 0.592-0.191 0.927-0.191 0.008 0 0.015 0 0.023 0h-0.001c0.314 0 0.606 0.052 0.878 0.156 0.272 0.105 0.515 0.261 0.729 0.469l-0.651 0.578c-0.114-0.141-0.258-0.253-0.424-0.325l-0.007-0.003c-0.148-0.064-0.321-0.101-0.502-0.102h-0c-0.193 0-0.378 0.036-0.553 0.109s-0.332 0.197-0.47 0.371c-0.139 0.175-0.247 0.399-0.325 0.676s-0.121 0.614-0.126 1.016c0.005 0.391 0.046 0.729 0.122 1.015s0.18 0.52 0.313 0.703c0.134 0.183 0.285 0.318 0.455 0.407 0.155 0.083 0.339 0.132 0.534 0.132 0.001 0 0.002 0 0.003 0h-0c0.057 0 0.134-0.003 0.231-0.012s0.193-0.021 0.29-0.039c0.108-0.020 0.201-0.046 0.291-0.079l-0.013 0.004c0.089-0.031 0.154-0.075 0.196-0.133v-1.422h-0.98v-0.64l1.913 0z"></path>
</svg>
