<!-- Generated by IcoMoon.io -->
<svg version="1.1" xmlns="http://www.w3.org/2000/svg" width="25" height="32" viewBox="0 0 25 32">
<title>txt</title>
<path fill="#e9e9e0" d="M17.501 0h-16.643c-0.464 0-0.84 0.374-0.84 1.101v30.328c0 0.197 0.376 0.571 0.839 0.571h22.982c0.463 0 0.839-0.374 0.839-0.571v-24.013c0-0.398-0.053-0.526-0.147-0.62l-6.673-6.649c-0.092-0.091-0.218-0.147-0.357-0.147v0z"></path>
<path fill="#d9d7ca" d="M17.796 0.086v6.771h6.795z"></path>
<path fill="#95a5a5" d="M23.839 32h-22.982c-0 0-0.001 0-0.001 0-0.462 0-0.837-0.374-0.838-0.836v-8.879h24.661v8.879c-0.001 0.462-0.375 0.836-0.838 0.836-0.001 0-0.001 0-0.002 0h0z"></path>
<path fill="#fff" d="M8.831 24.528v0.641h-1.725v5.117h-0.949v-5.117h-1.725v-0.641zM12.602 27.489l1.466 2.797h-1.089l-0.918-2.172h-0.079l-0.988 2.172h-1.089l1.466-2.797-1.561-2.961h1.074l1.019 2.344h0.078l1.106-2.344h1.074zM19.533 24.528v0.641h-1.725v5.117h-0.949v-5.117h-1.725v-0.641z"></path>
<path fill="#c8bdb8" d="M6.9 7.429h-3.441c-0 0-0.001 0-0.001 0-0.316 0-0.572-0.256-0.572-0.571v-0c0-0.315 0.256-0.571 0.574-0.571h3.441c0.317 0 0.573 0.256 0.573 0.571s-0.256 0.571-0.573 0.571zM8.62 10.286h-5.162c-0 0-0.001 0-0.001 0-0.316 0-0.572-0.256-0.572-0.571v-0c0-0.315 0.256-0.571 0.574-0.571h5.161c0.317 0 0.574 0.256 0.574 0.571s-0.256 0.571-0.574 0.571zM10.914 10.286c-0.149 0-0.299-0.063-0.407-0.166-0.102-0.105-0.166-0.248-0.167-0.405v-0c0-0.154 0.063-0.297 0.172-0.406 0.206-0.211 0.597-0.211 0.809 0 0.103 0.109 0.166 0.257 0.166 0.406s-0.063 0.297-0.166 0.406c-0.106 0.101-0.249 0.163-0.407 0.166h-0zM17.796 10.286h-4.588c-0 0-0.001 0-0.001 0-0.316 0-0.572-0.256-0.572-0.571v-0c0-0.315 0.256-0.571 0.574-0.571h4.588c0.317 0 0.573 0.256 0.573 0.571s-0.256 0.571-0.574 0.571zM3.459 18.857c-0.149 0-0.299-0.063-0.407-0.166-0.101-0.105-0.164-0.248-0.167-0.405v-0c0-0.149 0.063-0.297 0.166-0.406 0.212-0.211 0.602-0.211 0.814 0.006 0.103 0.103 0.167 0.251 0.167 0.4s-0.063 0.297-0.167 0.406c-0.106 0.101-0.249 0.163-0.406 0.166h-0zM10.341 18.857h-4.589c-0 0-0.001 0-0.001 0-0.316 0-0.572-0.256-0.572-0.571v-0c0-0.315 0.256-0.571 0.574-0.571h4.588c0.317 0 0.574 0.256 0.574 0.571s-0.256 0.571-0.574 0.571zM21.237 10.286h-1.146c-0.001 0-0.001 0-0.002 0-0.316 0-0.572-0.256-0.572-0.571v-0c0-0.315 0.257-0.571 0.574-0.571h1.147c0.317 0 0.574 0.256 0.574 0.571s-0.256 0.571-0.574 0.571zM16.075 13.143h-12.617c-0 0-0.001 0-0.001 0-0.316 0-0.572-0.256-0.572-0.571v-0c0-0.315 0.256-0.571 0.574-0.571h12.617c0.317 0 0.574 0.256 0.574 0.571s-0.256 0.571-0.574 0.571zM21.237 13.143h-3.441c-0 0-0.001 0-0.001 0-0.316 0-0.572-0.256-0.572-0.571v-0c0-0.315 0.256-0.571 0.573-0.571h3.441c0.317 0 0.574 0.256 0.574 0.571s-0.256 0.571-0.574 0.571zM5.753 16h-2.294c-0 0-0.001 0-0.001 0-0.316 0-0.572-0.256-0.572-0.571v-0c0-0.315 0.256-0.571 0.574-0.571h2.294c0.317 0 0.574 0.256 0.574 0.571s-0.257 0.571-0.574 0.571zM13.782 16h-5.735c-0 0-0.001 0-0.001 0-0.316 0-0.572-0.256-0.572-0.571v-0c0-0.315 0.256-0.571 0.574-0.571h5.735c0.317 0 0.574 0.256 0.574 0.571s-0.256 0.571-0.574 0.571zM21.237 16h-5.161c-0 0-0.001 0-0.001 0-0.316 0-0.572-0.256-0.572-0.571v-0c0-0.315 0.256-0.571 0.574-0.571h5.161c0.317 0 0.574 0.256 0.574 0.571s-0.256 0.571-0.574 0.571z"></path>
</svg>
